<svg xmlns="http://www.w3.org/2000/svg" width="23.759" height="25" viewBox="0 0 23.759 25"><g transform="translate(-1 0.5)"><path d="M32.5,34v9.931h9.931V34Zm9.1,9.1H33.328V34.828h3.724v5.208l-1.776-1.776-.585.585,2.775,2.775,2.775-2.775-.585-.585-1.776,1.776V34.828H41.6Z" transform="translate(-18.172 -19.931)" fill="#f7f8f9" stroke="#fff" stroke-width="1"/><path d="M11.845,17.379q-.513,0-1.006-.018c-.2-.007-.392-.02-.586-.031-.123-.007-.25-.012-.37-.02-.258-.019-.509-.043-.757-.068l-.151-.014q-.426-.047-.83-.106l-.03,0a16.042,16.042,0,0,1-3.537-.9l-.021-.008c-.171-.069-.332-.14-.486-.213l-.06-.028c-.138-.066-.265-.134-.387-.2l-.091-.052c-.106-.062-.2-.126-.3-.19-.037-.026-.074-.051-.109-.077-.078-.058-.148-.116-.215-.174-.038-.033-.076-.066-.11-.1-.055-.053-.1-.107-.149-.16s-.065-.078-.093-.117a1.421,1.421,0,0,1-.094-.15,1.333,1.333,0,0,1-.06-.125,1.03,1.03,0,0,1-.047-.147.905.905,0,0,1-.033-.2v-3.4l.024.02c.1.085.194.169.305.25,1.561,1.177,4.676,2.091,9.188,2.091s7.609-.909,9.174-2.081a4.367,4.367,0,0,0,.34-.278l0,0v1.534a.414.414,0,0,0,.828,0V4.138a.4.4,0,0,0-.048-.184C21.636,1.806,17.042,0,11.845,0S2.053,1.806,1.548,3.954a.4.4,0,0,0-.048.184v15.31a.388.388,0,0,0,.048.185c.471,2,4.424,3.178,8.2,3.461h.031a.414.414,0,0,0,.031-.826c-4.6-.345-7.279-1.745-7.466-2.888a.4.4,0,0,0-.013-.054V15.845l.024.02c.1.085.194.169.305.25,1.561,1.177,4.676,2.091,9.188,2.091a.414.414,0,0,0,0-.828ZM2.576,6.123c.124.1.258.194.4.288.03.019.064.038.1.058q.182.114.386.223l.152.08q.227.115.476.224l.08.036c.194.082.4.161.614.237.059.021.121.041.182.062q.256.086.529.166l.2.058c.242.067.492.131.754.19l.111.023c.231.05.471.1.718.141l.254.043q.352.058.724.106l.189.026c.308.037.626.069.954.1l.247.017q.393.029.8.047l.3.012c.357.012.72.021,1.1.021s.74-.009,1.1-.021l.3-.012q.411-.019.8-.047l.247-.017c.327-.027.646-.059.954-.1l.189-.026q.372-.048.724-.106l.254-.043c.247-.043.487-.09.718-.141l.111-.023c.262-.059.512-.122.754-.19l.2-.058q.274-.079.529-.166c.061-.021.123-.041.182-.062.214-.076.421-.155.614-.237L19.6,7q.25-.109.476-.224l.152-.08q.2-.109.386-.223c.031-.019.065-.038.1-.058.145-.094.279-.19.4-.288.031-.025.059-.05.089-.074.054-.045.11-.089.16-.134v3.4a.9.9,0,0,1-.033.2,1,1,0,0,1-.048.15,1.189,1.189,0,0,1-.059.123,1.417,1.417,0,0,1-.1.152c-.028.038-.059.077-.091.115-.046.054-.095.108-.15.162-.034.033-.071.065-.108.1-.067.059-.138.118-.217.176-.034.025-.071.05-.107.075-.093.064-.191.128-.3.191l-.089.05c-.122.069-.251.138-.389.2l-.057.026c-.154.073-.316.144-.488.214l-.019.007a16.054,16.054,0,0,1-3.539.9l-.027,0q-.405.06-.833.106l-.149.014c-.249.026-.5.05-.759.068-.12.009-.246.013-.369.02-.195.011-.388.024-.588.031q-.494.017-1.007.018T10.838,12.4c-.2-.007-.392-.02-.586-.031-.123-.007-.25-.012-.37-.02-.258-.019-.509-.043-.757-.068l-.151-.014q-.426-.047-.83-.106l-.03,0a16.042,16.042,0,0,1-3.537-.9l-.021-.008c-.171-.069-.332-.14-.486-.213l-.06-.028c-.138-.066-.265-.134-.387-.2l-.091-.052c-.106-.062-.2-.126-.3-.19-.037-.026-.074-.051-.109-.077-.078-.058-.148-.116-.215-.174-.038-.033-.076-.066-.11-.1-.055-.053-.1-.107-.149-.16s-.065-.078-.093-.117a1.421,1.421,0,0,1-.094-.15,1.333,1.333,0,0,1-.06-.125,1.03,1.03,0,0,1-.047-.147.905.905,0,0,1-.033-.2v-3.4c.05.045.106.089.16.134C2.518,6.073,2.545,6.1,2.576,6.123Zm9.269-5.3c5.107,0,9.251,1.806,9.5,3.367,0,0,0,.007,0,.01a.837.837,0,0,1,.013.14c0,1.468-3.909,3.1-9.517,3.1s-9.517-1.635-9.517-3.1a.838.838,0,0,1,.013-.14.1.1,0,0,1,0-.011C2.6,2.633,6.738.828,11.845.828Z" fill="#f7f8f9" stroke="#fff" stroke-width="1"/></g></svg>