<svg xmlns="http://www.w3.org/2000/svg" width="19" height="23.975" viewBox="0 0 19 23.975"><g transform="translate(-39.402 0.5)"><path d="M55.64,1.081H52.876V0H44.928V1.081H42.164A2.264,2.264,0,0,0,39.9,3.343v17.37a2.264,2.264,0,0,0,2.262,2.262H55.64A2.264,2.264,0,0,0,57.9,20.713V3.343A2.264,2.264,0,0,0,55.64,1.081ZM45.863.935h6.078V2.163H45.863Zm11.1,19.778A1.328,1.328,0,0,1,55.64,22.04H42.164a1.328,1.328,0,0,1-1.327-1.327V3.343a1.328,1.328,0,0,1,1.327-1.327h2.764V3.1h7.948V2.016H55.64a1.328,1.328,0,0,1,1.327,1.327Z" fill="#f7f8f9" stroke="#f7f8f9" stroke-width="1"/><path d="M90.082,143.467l-.486.739a.262.262,0,0,1-.434,0l-.014-.02a1.2,1.2,0,0,0-2.073.172l-.26.56a.261.261,0,0,1-.491-.046l-.565-2.228a1.18,1.18,0,0,0-1.159-.9h-.007a1.18,1.18,0,0,0-1.157.914l-.51,2.1a.262.262,0,0,1-.494.043l-.5-1.156a1.2,1.2,0,0,0-1.1-.72H79.485v.935h1.348a.261.261,0,0,1,.24.157l.5,1.156a1.2,1.2,0,0,0,2.26-.195l.51-2.1a.261.261,0,0,1,.508,0l.565,2.228a1.184,1.184,0,0,0,1.049.9q.058.006.116.005a1.182,1.182,0,0,0,1.081-.693l.26-.56a.261.261,0,0,1,.453-.038l.014.02a1.2,1.2,0,0,0,.987.521h.011a1.194,1.194,0,0,0,.989-.539l.486-.739a.261.261,0,0,1,.218-.118H92.55v-.935H91.081A1.194,1.194,0,0,0,90.082,143.467Z" transform="translate(-37.115 -132.91)" fill="#f7f8f9" stroke="#f7f8f9" stroke-width="2"/><rect width="5.279" height="0.935" transform="translate(42.37 16.942)" fill="#f7f8f9" stroke="#f7f8f9" stroke-width="1"/><rect width="10.559" height="0.935" transform="translate(42.37 19.228)" fill="#f7f8f9" stroke="#f7f8f9" stroke-width="1"/></g></svg>