<svg xmlns="http://www.w3.org/2000/svg" xmlns:xlink="http://www.w3.org/1999/xlink" width="44.873" height="43" viewBox="0 0 44.873 43"><defs><filter id="a" x="0" y="7.258" width="16.863" height="24.478" filterUnits="userSpaceOnUse"><feOffset dy="3" input="SourceAlpha"/><feGaussianBlur stdDeviation="2.5" result="b"/><feFlood flood-opacity="0.169"/><feComposite operator="in" in2="b"/><feComposite in="SourceGraphic"/></filter><filter id="c" x="2.722" y="0" width="33.878" height="43" filterUnits="userSpaceOnUse"><feOffset dy="3" input="SourceAlpha"/><feGaussianBlur stdDeviation="2.5" result="d"/><feFlood flood-opacity="0.169"/><feComposite operator="in" in2="d"/><feComposite in="SourceGraphic"/></filter><filter id="e" x="23.111" y="16.427" width="20.894" height="19.025" filterUnits="userSpaceOnUse"><feOffset dy="3" input="SourceAlpha"/><feGaussianBlur stdDeviation="2.5" result="f"/><feFlood flood-opacity="0.169"/><feComposite operator="in" in2="f"/><feComposite in="SourceGraphic"/></filter><filter id="g" x="23.111" y="3.135" width="20.894" height="19.025" filterUnits="userSpaceOnUse"><feOffset dy="3" input="SourceAlpha"/><feGaussianBlur stdDeviation="2.5" result="h"/><feFlood flood-opacity="0.169"/><feComposite operator="in" in2="h"/><feComposite in="SourceGraphic"/></filter><filter id="i" x="24.645" y="11.184" width="20.228" height="16.933" filterUnits="userSpaceOnUse"><feOffset dy="3" input="SourceAlpha"/><feGaussianBlur stdDeviation="2.5" result="j"/><feFlood flood-opacity="0.169"/><feComposite operator="in" in2="j"/><feComposite in="SourceGraphic"/></filter></defs><g transform="translate(7.5 4.5)"><g transform="matrix(1, 0, 0, 1, -7.5, -4.5)" filter="url(#a)"><path d="M.931,69.21A.949.949,0,0,0,0,70.177v7.544a.95.95,0,0,0,.931.967.95.95,0,0,0,.931-.967V70.177A.949.949,0,0,0,.931,69.21Z" transform="translate(7.5 -57.45)" fill="#fefcfc"/></g><g transform="matrix(1, 0, 0, 1, -7.5, -4.5)" filter="url(#c)"><path d="M39.867,25.459H35.992a1.048,1.048,0,0,0-.931,1.134v1.024l-12.473,4.5a1.128,1.128,0,0,0-.667,1.087v8.847a1.373,1.373,0,0,0,.011.171c0,.011,0,.021,0,.032a1.349,1.349,0,0,0,.027.14L24.6,52.664a.972.972,0,0,0,.889.8.779.779,0,0,0,.278-.052l3.845-1.464a1,1,0,0,0,.547-.556,1.358,1.358,0,0,0,.064-.865l-1.308-5.091,6.142,2.218v1.024a1.048,1.048,0,0,0,.931,1.134h3.875a1.048,1.048,0,0,0,.931-1.134V26.593A1.048,1.048,0,0,0,39.867,25.459Zm-11.7,24.658L26.1,50.9l-1.84-7.153,2.5.9Zm-.393-7.463-.008,0-3.986-1.439V34.054l11.277-4.071v15.3ZM38.936,47.54H36.924V27.727h2.012Z" transform="translate(-11.7 -20.96)" fill="#fefcfc"/></g><g transform="matrix(1, 0, 0, 1, -7.5, -4.5)" filter="url(#e)"><path d="M187.032,133.141,183,131.049a.916.916,0,0,0-1.25.432.984.984,0,0,0,.417,1.3l4.03,2.092a.9.9,0,0,0,.416.1.928.928,0,0,0,.834-.534A.984.984,0,0,0,187.032,133.141Z" transform="translate(-151.04 -110.02)" fill="#fefcfc"/></g><g transform="matrix(1, 0, 0, 1, -7.5, -4.5)" filter="url(#g)"><path d="M182.586,53.806a.9.9,0,0,0,.416-.1l4.03-2.091a.984.984,0,0,0,.417-1.3.916.916,0,0,0-1.25-.432l-4.03,2.091a.984.984,0,0,0-.417,1.3A.928.928,0,0,0,182.586,53.806Z" transform="translate(-151.04 -42.15)" fill="#fefcfc"/></g><g transform="matrix(1, 0, 0, 1, -7.5, -4.5)" filter="url(#i)"><path d="M198.307,98.48h-3.365a.967.967,0,0,0,0,1.933h3.365a.967.967,0,0,0,0-1.933Z" transform="translate(-161.87 -82.8)" fill="#fefcfc"/></g></g></svg>