<svg xmlns="http://www.w3.org/2000/svg" xmlns:xlink="http://www.w3.org/1999/xlink" width="395.336" height="226.494" viewBox="0 0 395.336 226.494"><defs><clipPath id="a"><rect width="34.673" height="34.673" fill="#fff" stroke="#ac4704" stroke-linecap="round" stroke-linejoin="round" stroke-width="0.4"/></clipPath><linearGradient id="c" x1="0.5" x2="0.5" y2="1" gradientUnits="objectBoundingBox"><stop offset="0" stop-color="#f08204"/><stop offset="1" stop-color="#c14e01"/><stop offset="1" stop-color="#c04d01"/></linearGradient></defs><g transform="translate(0.219 0.209)"><path d="M1823.415,485.262s29.342-29.657,38.023-23.234S1823.415,485.262,1823.415,485.262Z" transform="translate(-1549.25 -450.065)" fill="#fb9c0b" stroke="#ac4704" stroke-linecap="round" stroke-linejoin="round" stroke-width="0.4"/><path d="M1811.884,548.758s55.452-26.876,69.157-13.974-15.072,12.134-25.756,10.969S1811.884,548.758,1811.884,548.758Z" transform="translate(-1539.734 -507.967)" fill="#fb9c0b" stroke="#ac4704" stroke-linecap="round" stroke-linejoin="round" stroke-width="0.4"/><path d="M1797.3,484.02s.221-1.423.518-3.505c.58-4.062,1.45-10.634,1.534-14.045.127-5.16,4.159-8.944,8.866-3.838s-9.214,19.921-9.214,19.921Z" transform="translate(-1527.699 -449.317)" fill="#fb9c0b" stroke="#ac4704" stroke-linecap="round" stroke-linejoin="round" stroke-width="0.4"/><path d="M959.94,861.34c2.569-8.339,16.682-5.221,16.682-5.221s9.139,15.061,11.932,15.508-5.3-14.4-5.3-14.4c5.454-.34,19.078,6.8,19.078,6.8s-1.467,17.154,1.351,16.9.524-15.256.524-15.256c5.206,1.759,9.905,8.065,9.905,8.065,5.794,10.206-7.61,17.119-7.61,17.119a27.992,27.992,0,0,0,3.068,12.921h0a20.289,20.289,0,0,1,1.559,3.466l-1.434-.049c-.1-.388-.22-.765-.351-1.126a.008.008,0,0,0,0-.007l-.006-.016c-.091-.225-.221-.545-.384-.935h0s0,0,0,0c-.409-.872-.683-1.516-.854-1.98v0c-1.221-2.738-2.992-6.311-4.228-7.09a2.788,2.788,0,0,0,.33-.647l-.33.647c-2.635,5.176-14.94,5.631-21.731,3.994s-3.743-3.464.047-6.469,11.477-1.914,13.8-3.063-.968-2.491-5.539-2.3-7.007,4.675-14.4,5.124-12.524-13.6-12.524-13.6c5.031,1.753,14.246-.74,14.657-2.481s-13.1-2.03-15.183-2.628S957.371,869.679,959.94,861.34Z" transform="translate(-835.917 -771.946)" fill="#fb9c0b" stroke="#ac4704" stroke-linecap="round" stroke-linejoin="round" stroke-width="0.4"/><path d="M1984.71,928.865c-2.6-6.724-14.052-3.338-14.052-3.338S1964,938.47,1961.721,939s3.534-12.177,3.534-12.177c-4.515.036-15.331,6.709-15.331,6.709s2.2,14.054-.136,14.008-1.314-12.544-1.314-12.544c-4.19,1.751-7.7,7.22-7.7,7.22-4.185,8.747,7.263,13.67,7.263,13.67a23.13,23.13,0,0,1-1.781,10.828h0a16.743,16.743,0,0,0-1.084,2.947l1.179-.124q.094-.489.224-.949a.008.008,0,0,1,0-.005s0-.009,0-.013c.062-.191.151-.462.262-.793h0c.286-.743.475-1.29.59-1.682a.009.009,0,0,0,0,0c.848-2.327,2.1-5.375,3.074-6.089a2.3,2.3,0,0,1-.309-.514l.309.514c2.472,4.114,12.64,3.777,18.143,2.035s2.885-3.072-.413-5.328-9.571-.914-11.551-1.727.654-2.109,4.433-2.214,6.046,3.448,12.162,3.39,9.536-11.932,9.536-11.932c-4.045,1.736-11.785.215-12.224-1.2s10.678-2.431,12.363-3.045S1987.309,935.589,1984.71,928.865Z" transform="translate(-1645.343 -828.606)" fill="#fb9c0b" stroke="#ac4704" stroke-linecap="round" stroke-linejoin="round" stroke-width="0.4"/><path d="M992.93,404.757c6.654-12.934,28.9-3.69,28.9-3.69s10.594,27.389,15.049,28.94-4.486-25.186-4.486-25.186c9.05,1.038,29.322,16.738,29.322,16.738S1054.3,449.283,1059,449.69s5.32-24.884,5.32-24.884c8.03,4.409,13.9,16.132,13.9,16.132,6.525,18.444-17.5,25.87-17.5,25.87a46.665,46.665,0,0,0,1.256,22.1h0a33.846,33.846,0,0,1,1.545,6.145l-2.339-.5q-.086-1-.247-1.952a.013.013,0,0,0,0-.011c0-.009,0-.018,0-.027-.083-.4-.2-.959-.356-1.647v0s0,0,0,0c-.415-1.552-.677-2.689-.823-3.5a.034.034,0,0,1,0-.008c-1.2-4.85-3.064-11.232-4.865-12.872a4.633,4.633,0,0,0,.73-.966l-.73.966c-5.839,7.725-26.166,4.874-36.832.2s-5.131-6.78,1.968-10.6,19.4.215,23.542-.992-.86-4.371-8.419-5.389-12.867,5.624-25.125,4.2-16.579-25.977-16.579-25.977c7.744,4.348,23.6,2.951,24.779.214s-20.9-7.161-24.15-8.753S986.277,417.691,992.93,404.757Z" transform="translate(-861.062 -397.867)" fill="#fb9c0b" stroke="#ac4704" stroke-linecap="round" stroke-linejoin="round" stroke-width="0.4"/><rect width="142.483" height="200.243" transform="translate(165.691 25.843)" fill="#f9f9f9" stroke="#ac4704" stroke-linecap="round" stroke-linejoin="round" stroke-width="0.4"/><path d="M0,0H132.356V191.677H0Z" transform="translate(170.14 29.594)" fill="#fb9c0b" stroke="#ac4704" stroke-linecap="round" stroke-width="0.4" opacity="0.22"/><g transform="translate(179.176 43.871)"><rect width="34.673" height="34.673" transform="translate(0 0)" fill="#fff" stroke="#ac4704" stroke-linecap="round" stroke-linejoin="round" stroke-width="0.4"/><g transform="translate(0 0)" clip-path="url(#a)"><path d="M1315.445,821.206H1288.03l19.653-44.069,6.8,15.235,2.484,14.814Z" transform="translate(-1286.594 -753)" fill="#88a0e2" stroke="#ac4704" stroke-linecap="round" stroke-linejoin="round" stroke-width="0.4"/><path d="M1284.679,771.136l4.391-1.14,4.265-1.512a21.843,21.843,0,0,0,4.24,1.512c1.921.358,8.333,11.068,8.333,11.516s-5.014,32.335-5.014,32.335h-24.2Z" transform="translate(-1277.237 -745.86)" fill="#fff" stroke="#ac4704" stroke-linecap="round" stroke-linejoin="round" stroke-width="0.4"/><path d="M1355.15,744.626a11.149,11.149,0,0,1-7.629-1.74,22.076,22.076,0,0,0,1.768-5.732c.011-.068.019-.134.027-.2a5.9,5.9,0,0,0,.058-1.321l5.591.13s1.512.734,1.5,1.218q-.009.387-.011.742c0,.643.009,1.205.031,1.688.069,1.571.292,3.475.292,3.475S1357.344,744.249,1355.15,744.626Z" transform="translate(-1335.69 -718.751)" fill="#ffb27d" stroke="#ac4704" stroke-linecap="round" stroke-linejoin="round" stroke-width="0.4"/><path d="M1364.293,744.176a7.729,7.729,0,0,1-7.2-2.259c-.076-.087-.115-.138-.115-.138.045-.021.093-.04.142-.059,1.592-.6,5.22-.281,7.2.5C1364.32,742.861,1364.271,743.693,1364.293,744.176Z" transform="translate(-1343.496 -723.513)" fill="#e2915a" stroke="#ac4704" stroke-linecap="round" stroke-linejoin="round" stroke-width="0.4"/><path d="M1338.514,680.441c1.441,3.886,6.6,2.859,8.794,2.219.618-.179,1-.328,1-.328.678-.313.881-1.5.811-3a23.16,23.16,0,0,0-2.012-8.147c-1.021-1.511-2.717-3.044-7.713-.862S1336.667,675.462,1338.514,680.441Z" transform="translate(-1326.481 -663.956)" fill="#ffb27d" stroke="#ac4704" stroke-linecap="round" stroke-linejoin="round" stroke-width="0.4"/><path d="M1329.343,653.09a7.569,7.569,0,0,0-4.5-1.606,11.9,11.9,0,0,0-6.06,1.686c-3.938,2.611-4.487,6.064-1.349,10.752,3.318,4.958,5.342,3.867,5.342,3.867s-.388-.124-.634-1.805c-.014-.1-.024-.176-.031-.245a1.142,1.142,0,0,0-.514-.855c-.611-.381-1.116-1.765-.741-2.24.452-.572,1.3-.12,1.621.287a.664.664,0,0,0,.971.045c1.181-1.068.03-2.6,1.12-3.841s7.627-.685,8.055-4.361A11.608,11.608,0,0,1,1329.343,653.09Z" transform="translate(-1309.188 -649.303)" fill="#c04d01" stroke="#ac4704" stroke-linecap="round" stroke-linejoin="round" stroke-width="0.4"/><path d="M1400.5,777.137s6.867,14.168,7.762,25.108a109.025,109.025,0,0,1,0,18.961,74.04,74.04,0,0,0,4.889-23.327c.188-5.623-.713-15.8-2.623-17.6C1409.6,779.4,1406.8,778.558,1400.5,777.137Z" transform="translate(-1379.412 -753)" fill="#f08204" stroke="#ac4704" stroke-linecap="round" stroke-linejoin="round" stroke-width="0.4"/><path d="M1232.47,795.873c-.022,1.618-.085,3.309-.2,5.06a86.809,86.809,0,0,1-3.64,20.056h-22.472s2.784-6.77,6.148-14.127c.589-1.289,1.2-2.6,1.809-3.887,2.486-5.238,5.07-10.226,6.959-12.745,5.014-6.685,9.79-13.093,9.79-13.093A87.168,87.168,0,0,1,1232.47,795.873Z" transform="translate(-1219.029 -753)" fill="#aec3ff" stroke="#ac4704" stroke-linecap="round" stroke-linejoin="round" stroke-width="0.4"/><path d="M1255.338,928.048s-4.615,1.83-14,.839c.589-1.289,1.2-2.6,1.808-3.886Z" transform="translate(-1248.065 -875.026)" fill="#9db0f4" stroke="#ac4704" stroke-linecap="round" stroke-linejoin="round" stroke-width="0.4"/><path d="M1290.678,883.642c-.022,1.618-.085,3.309-.2,5.06-3.024-.164-13.839-.759-13.788-.913.06-.179,1-4.3,1-4.3s9.091,2.209,12.97,0Z" transform="translate(-1277.236 -840.769)" fill="#9db0f4" stroke="#ac4704" stroke-linecap="round" stroke-linejoin="round" stroke-width="0.4"/><path d="M1332.508,903.563s3.223-1.914,4.716-1.822,3.88.569,4.238,1.822-.537.642-2.537,1.032c-1.179.23-1.9,1.923-3.433,2.072a21.123,21.123,0,0,1-2.984-.418Z" transform="translate(-1323.301 -855.828)" fill="#ffb27d" stroke="#ac4704" stroke-linecap="round" stroke-linejoin="round" stroke-width="0.4"/><path d="M1240.279,777.137s-8.25.975-10.4,3c-3.634,3.432-13.192,16.411-12.247,22.1.627,3.778,18.086,3.778,18.086,3.778a12.077,12.077,0,0,0,2.949-2.66,5.837,5.837,0,0,0,1.054-4.449l-10.8-3.669s5.267-5.107,9.326-5.372C1241.218,789.677,1240.279,777.137,1240.279,777.137Z" transform="translate(-1228.445 -753)" fill="#f08204" stroke="#ac4704" stroke-linecap="round" stroke-linejoin="round" stroke-width="0.4"/></g></g><g transform="translate(223.023 65.725)"><rect width="43.448" height="0.872" transform="translate(0 0)" fill="#aec3ff" stroke="#ac4704" stroke-linecap="round" stroke-linejoin="round" stroke-width="0.4"/><rect width="43.448" height="0.872" transform="translate(0 4.069)" fill="#aec3ff" stroke="#ac4704" stroke-linecap="round" stroke-linejoin="round" stroke-width="0.4"/><rect width="43.448" height="0.872" transform="translate(0 8.186)" fill="#aec3ff" stroke="#ac4704" stroke-linecap="round" stroke-linejoin="round" stroke-width="0.4"/></g><rect width="13.294" height="13.294" transform="translate(223.023 41.002)" fill="#fff" stroke="#ac4704" stroke-linecap="round" stroke-linejoin="round" stroke-width="0.4"/><rect width="16.849" height="1.534" transform="translate(249.622 51.671)" fill="#aec3ff" stroke="#ac4704" stroke-linecap="round" stroke-linejoin="round" stroke-width="0.4"/><rect width="20.519" height="1.534" transform="translate(245.953 55.388)" fill="#aec3ff" stroke="#ac4704" stroke-linecap="round" stroke-linejoin="round" stroke-width="0.4"/><g transform="translate(179.176 146.428)"><g transform="translate(0 0)"><rect width="34.673" height="34.673" fill="#fff" stroke="#ac4704" stroke-linecap="round" stroke-linejoin="round" stroke-width="0.4"/><g clip-path="url(#a)"><g transform="translate(-11.332 2.18)"><path d="M1282.078,1334.844l4.391-1.139,4.266-1.512a21.85,21.85,0,0,0,4.24,1.512c1.921.358,8.332,11.068,8.332,11.516s.179,32.553.179,32.553l-29.4-.218Z" transform="translate(-1263.758 -1311.748)" fill="#f08204" stroke="#ac4704" stroke-linecap="round" stroke-linejoin="round" stroke-width="0.4"/><path d="M1352.549,1308.334a11.147,11.147,0,0,1-7.629-1.74,22.066,22.066,0,0,0,1.768-5.732c.011-.068.019-.134.027-.2a5.9,5.9,0,0,0,.058-1.321l5.591.13s1.512.734,1.5,1.218q-.009.388-.01.741c0,.643.009,1.205.031,1.688.069,1.571.292,3.475.292,3.475S1354.743,1307.957,1352.549,1308.334Z" transform="translate(-1322.212 -1284.639)" fill="#ffb27d" stroke="#ac4704" stroke-linecap="round" stroke-linejoin="round" stroke-width="0.4"/><path d="M1361.692,1307.883a7.73,7.73,0,0,1-7.2-2.259c-.076-.087-.115-.138-.115-.138.045-.021.093-.041.142-.06,1.592-.6,5.22-.281,7.2.5C1361.719,1306.568,1361.67,1307.4,1361.692,1307.883Z" transform="translate(-1330.018 -1289.4)" fill="#e2915a" stroke="#ac4704" stroke-linecap="round" stroke-linejoin="round" stroke-width="0.4"/><path d="M1335.913,1244.148c1.44,3.886,6.6,2.859,8.794,2.219.618-.179,1-.328,1-.328.678-.313.88-1.5.811-3a23.169,23.169,0,0,0-2.013-8.147c-1.021-1.512-2.717-3.044-7.714-.862S1334.066,1239.169,1335.913,1244.148Z" transform="translate(-1313.002 -1229.843)" fill="#ffb27d" stroke="#ac4704" stroke-linecap="round" stroke-linejoin="round" stroke-width="0.4"/><path d="M1326.741,1216.8a7.568,7.568,0,0,0-4.5-1.606,11.9,11.9,0,0,0-6.06,1.686c-3.938,2.611-4.487,6.064-1.349,10.752,3.318,4.958,5.341,3.867,5.341,3.867s-.388-.124-.634-1.806c-.014-.1-.024-.176-.031-.245a1.142,1.142,0,0,0-.514-.854c-.611-.381-1.116-1.765-.741-2.24.452-.572,1.3-.119,1.622.287a.664.664,0,0,0,.971.044c1.182-1.068.03-2.6,1.12-3.841s7.627-.685,8.055-4.361A11.616,11.616,0,0,1,1326.741,1216.8Z" transform="translate(-1295.709 -1215.19)" fill="#c04d01" stroke="#ac4704" stroke-linecap="round" stroke-linejoin="round" stroke-width="0.4"/><path d="M1397.9,1340.845s6.866,14.168,7.762,25.108a109.07,109.07,0,0,1,0,18.961,74.048,74.048,0,0,0,4.889-23.327c.189-5.623-.713-15.8-2.623-17.6C1407,1343.1,1404.2,1342.265,1397.9,1340.845Z" transform="translate(-1365.934 -1318.888)" fill="#f08204" stroke="#ac4704" stroke-linecap="round" stroke-linejoin="round" stroke-width="0.4"/><path d="M1237.678,1340.845h0s-8.25.976-10.4,3c-3.634,3.432-13.192,16.411-12.247,22.1.209,1.262,5.1,5.119,7.793,5.678.682,5.357-1.006,13.283-1.006,13.283l13.627-.218a86.8,86.8,0,0,0,3.64-20.056c.115-1.75.178-3.442.2-5.059A87.184,87.184,0,0,0,1237.678,1340.845Z" transform="translate(-1214.966 -1318.888)" fill="#f08204" stroke="#ac4704" stroke-linecap="round" stroke-linejoin="round" stroke-width="0.4"/><path d="M1339.918,1332.481s3.453,2.822,5.5,3.315c0,0-1.9,1-7.865-1.674A3.617,3.617,0,0,1,1339.918,1332.481Z" transform="translate(-1316.13 -1311.985)" fill="#f99746" stroke="#ac4704" stroke-linecap="round" stroke-linejoin="round" stroke-width="0.4"/><path d="M1385.065,1330.817a7.508,7.508,0,0,0,1,1.939s-.532,1.88-3.5,1.667C1382.559,1334.423,1385.182,1332.54,1385.065,1330.817Z" transform="translate(-1353.273 -1310.612)" fill="#f99746" stroke="#ac4704" stroke-linecap="round" stroke-linejoin="round" stroke-width="0.4"/><path d="M1369.135,1342.785l4.1-.5s-.128,2.4-1.362,3.36C1371.42,1345.995,1369.083,1343.212,1369.135,1342.785Z" transform="translate(-1342.195 -1320.077)" fill="#f99746" stroke="#ac4704" stroke-linecap="round" stroke-linejoin="round" stroke-width="0.4"/><path d="M1378.31,1351.563s.941,17.142.5,24.722c-.246,4.189-.854,10.227-.757,10.811s2.879,3.312,2.879,3.312,2.737-2.548,2.8-3.652a123.893,123.893,0,0,0-4.013-35.371C1379.553,1350.761,1378.31,1351.563,1378.31,1351.563Z" transform="translate(-1349.544 -1327.39)" fill="#f99746" stroke="#ac4704" stroke-linecap="round" stroke-linejoin="round" stroke-width="0.4"/></g><path d="M1335.3,1330.817s-1.051.073-2.9,2.215a16.986,16.986,0,0,0,5.714,3.214,4.972,4.972,0,0,1,.707-2.926Z" transform="translate(-1323.207 -1308.433)" fill="#c5d7ff" stroke="#ac4704" stroke-linecap="round" stroke-linejoin="round" stroke-width="0.4"/><path d="M1390.124,1330.817l-1.435,2.126a6.51,6.51,0,0,1,1.948,2.41,6.008,6.008,0,0,0,.916-2.5S1390.877,1331.078,1390.124,1330.817Z" transform="translate(-1369.665 -1308.433)" fill="#c5d7ff" stroke="#ac4704" stroke-linecap="round" stroke-linejoin="round" stroke-width="0.4"/></g></g></g><g transform="translate(223.023 147.273)"><g transform="translate(0 23.889)"><rect width="45.935" height="0.872" fill="#aec3ff" stroke="#ac4704" stroke-linecap="round" stroke-linejoin="round" stroke-width="0.4"/><rect width="45.935" height="0.872" transform="translate(0 4.069)" fill="#aec3ff" stroke="#ac4704" stroke-linecap="round" stroke-linejoin="round" stroke-width="0.4"/><rect width="45.935" height="0.872" transform="translate(0 8.186)" fill="#aec3ff" stroke="#ac4704" stroke-linecap="round" stroke-linejoin="round" stroke-width="0.4"/></g><rect width="13.294" height="13.294" transform="translate(0 0)" fill="#fff" stroke="#ac4704" stroke-linecap="round" stroke-linejoin="round" stroke-width="0.4"/><rect width="17.814" height="1.534" transform="translate(28.121 10.386)" fill="#aec3ff" stroke="#ac4704" stroke-linecap="round" stroke-linejoin="round" stroke-width="0.4"/><rect width="21.694" height="1.534" transform="translate(24.242 13.977)" fill="#aec3ff" stroke="#ac4704" stroke-linecap="round" stroke-linejoin="round" stroke-width="0.4"/></g><g transform="translate(179.176 94.291)"><rect width="34.673" height="34.673" transform="translate(0 0)" fill="#fff" stroke="#ac4704" stroke-linecap="round" stroke-linejoin="round" stroke-width="0.4"/><g transform="translate(0.949 2.675)"><path d="M1305.237,931.739a16.036,16.036,0,0,0-5.544-.058c-5.809.461-7.431,9.4-7.094,11.929.623,4.659-1.65,5.883-4.439,9.49-3.042,3.933-3.411,7.575-2.423,10.349h14.748c3.163-2.782,7.484-6.6,10.2-8.956a4.569,4.569,0,0,0,1.025-.53C1317.633,949.876,1310.387,933.167,1305.237,931.739Z" transform="translate(-1285.247 -931.451)" fill="#c04d01" stroke="#ac4704" stroke-linecap="round" stroke-linejoin="round" stroke-width="0.4"/><path d="M1364.6,1020.344c.027.01-2.412,1.479-4.342,1.08-1.815-.374-3.659-2.828-3.635-2.834.746-.2,1.431-1.036,1.133-5.5l.346.046,5.815.774s-.017,1.816.087,3.519C1364.088,1018.861,1364.26,1020.211,1364.6,1020.344Z" transform="translate(-1344.148 -998.827)" fill="#ffb27d" stroke="#ac4704" stroke-linecap="round" stroke-linejoin="round" stroke-width="0.4"/><path d="M1370.9,1014.129s-.016,1.816.087,3.518c-3.219.113-5.1-2.712-5.9-4.293Z" transform="translate(-1351.133 -999.043)" fill="#ed975d" stroke="#ac4704" stroke-linecap="round" stroke-linejoin="round" stroke-width="0.4"/><path d="M1366.121,966.735s-7.6.606-7.9-4.13-1.49-7.848,3.347-8.435,5.9,1.159,6.382,2.716S1368.089,966.455,1366.121,966.735Z" transform="translate(-1345.18 -950.104)" fill="#ffb27d" stroke="#ac4704" stroke-linecap="round" stroke-linejoin="round" stroke-width="0.4"/><path d="M1356.256,951.246s-3.844,5.094-6.988,6.117-4.583.255-4.583.255a12.843,12.843,0,0,0,2.145-4.768,2.312,2.312,0,0,1,1.575-1.735C1350.657,950.421,1354.989,949.39,1356.256,951.246Z" transform="translate(-1334.299 -946.921)" fill="#c04d01" stroke="#ac4704" stroke-linecap="round" stroke-linejoin="round" stroke-width="0.4"/><path d="M1393.545,951.68a11.9,11.9,0,0,1,2.654,2.212,9.14,9.14,0,0,1,1.269,4.7s1.427-5.322-.47-7.347C1394.985,949.1,1393.545,951.68,1393.545,951.68Z" transform="translate(-1374.621 -947.081)" fill="#c04d01" stroke="#ac4704" stroke-linecap="round" stroke-linejoin="round" stroke-width="0.4"/><path d="M1315.418,1046.37a2.865,2.865,0,0,0-.865-1.323c-1.995-1.86-6.477-2.62-6.477-2.62v0a.456.456,0,0,1-.01.049v0a1.753,1.753,0,0,1-1.917,1.2c-1.021,0-2.575-.44-4.938-1.835l-.035-.021s0,0,0,0v0s-6.21.382-8.358,3.38a41.609,41.609,0,0,0-4.114,9.332h28.944C1316.653,1050.9,1315.729,1047.511,1315.418,1046.37Z" transform="translate(-1288.097 -1022.535)" fill="#f08204" stroke="#ac4704" stroke-linecap="round" stroke-linejoin="round" stroke-width="0.4"/></g></g><g transform="translate(223.023 94.791)"><g transform="translate(0 23.889)"><rect width="45.085" height="0.872" fill="#aec3ff" stroke="#ac4704" stroke-linecap="round" stroke-linejoin="round" stroke-width="0.4"/><rect width="45.085" height="0.872" transform="translate(0 4.069)" fill="#aec3ff" stroke="#ac4704" stroke-linecap="round" stroke-linejoin="round" stroke-width="0.4"/><rect width="45.085" height="0.872" transform="translate(0 8.186)" fill="#aec3ff" stroke="#ac4704" stroke-linecap="round" stroke-linejoin="round" stroke-width="0.4"/></g><rect width="13.294" height="13.294" fill="#fff" stroke="#ac4704" stroke-linecap="round" stroke-linejoin="round" stroke-width="0.4"/><rect width="18.795" height="1.534" transform="translate(24.653 10.386)" fill="#aec3ff" stroke="#ac4704" stroke-linecap="round" stroke-linejoin="round" stroke-width="0.4"/><rect width="22.889" height="1.534" transform="translate(20.559 13.977)" fill="#aec3ff" stroke="#ac4704" stroke-linecap="round" stroke-linejoin="round" stroke-width="0.4"/></g><path d="M1545.127,934.471l4.134,5.7,4.924-9.107-5.714,5.194Z" transform="translate(-1319.59 -834.524)" fill="#233862" stroke="#ac4704" stroke-linecap="round" stroke-linejoin="round" stroke-width="0.4"/><rect width="45.622" height="0.765" transform="translate(202.725 201.009)" fill="#aec3ff" stroke="#ac4704" stroke-linecap="round" stroke-linejoin="round" stroke-width="0.4"/><rect width="45.622" height="0.765" transform="translate(202.725 204.666)" fill="#aec3ff" stroke="#ac4704" stroke-linecap="round" stroke-linejoin="round" stroke-width="0.4"/><rect width="45.622" height="0.765" transform="translate(202.725 209.087)" fill="#aec3ff" stroke="#ac4704" stroke-linecap="round" stroke-linejoin="round" stroke-width="0.4"/><path d="M1286.99,1495.233c.614-.864,1.256-2.381.77-3.45-.446-.981-1.328-.527-1.927.042a7.5,7.5,0,0,0-1.783,3.161,20.528,20.528,0,0,0-1,4.335c-.122,1.184-.2,3.01.561,4.022.648.859,1.69.154,2.408-.249a9.047,9.047,0,0,0,4.682-5.907c.067-.335-.347-.642-.61-.355a3.141,3.141,0,0,0-.892,2.04c-.012.429.028,1.11.545,1.234.608.146,1.081-.7,1.343-1.1a6.955,6.955,0,0,0,1.006-2.669l-.7-.194c-.1.691.023,1.923,1.048,1.709.97-.2,1.051-1.869,1.082-2.618a.367.367,0,0,0-.717-.1,3.9,3.9,0,0,0,.086,2,6.393,6.393,0,0,0,.429.935,5.067,5.067,0,0,1,.394.779q.343.839-.591.713l-.218.536c1.721-.677,3.591-1.607,3.687-3.7.021-.47-.709-.469-.731,0-.078,1.714-1.772,2.449-3.15,2.991a.373.373,0,0,0-.218.537,1.038,1.038,0,0,0,1.872-.074,1.855,1.855,0,0,0-.1-1.588c-.465-1.008-.984-1.768-.753-2.938l-.717-.1a4.911,4.911,0,0,1-.161,1.165,2.05,2.05,0,0,1-.134.4q-.173.683-.4-.462c.067-.457-.626-.661-.7-.194a6.422,6.422,0,0,1-.933,2.495c-.226.346-.56,1.039-.527.237a2.349,2.349,0,0,1,.678-1.523l-.611-.355a7.57,7.57,0,0,1-2.62,4.273,7.752,7.752,0,0,1-2.243,1.471,1.132,1.132,0,0,1-1.079-.133c-.107-.1-.147-.515-.178-.661a7.685,7.685,0,0,1-.15-1.764,17.208,17.208,0,0,1,1.22-5.555,6.02,6.02,0,0,1,1.4-2.282c.831-.784.835.462.714,1.031a4.051,4.051,0,0,1-.7,1.492c-.273.384.36.749.631.369Z" transform="translate(-1103.247 -1292.592)" fill="#aec3ff" stroke="#ac4704" stroke-linecap="round" stroke-linejoin="round" stroke-width="0.4"/><path d="M1696.361,1575.63c-.131,1.789-2.656,1.808-5.52,1.476s-2.1.392-6.114.448-5.394-1.27-5.588-1.843c-.173-.508,1.759-.937,3.825-1.439.26-.063.521-.128.781-.194,2.33-.592,3.873-2.337,5.867-3.859,1.888-1.443,4.324-6.663,4.324-6.663l5.479-.247s-2.307,4.679-3.174,6.7a6.61,6.61,0,0,0-.071,3.764A7.015,7.015,0,0,1,1696.361,1575.63Z" transform="translate(-1430.176 -1352.092)" fill="#ffb27d" stroke="#ac4704" stroke-linecap="round" stroke-linejoin="round" stroke-width="0.4"/><path d="M1690.841,1626.51c-2.865-.332-2.1.393-6.114.449s-5.394-1.27-5.588-1.843c-.173-.508,1.759-.937,3.825-1.439l.024.037a11.24,11.24,0,0,0,5.885,1.054c2.692-.27,5.439-1.393,7.3-1.595a7.009,7.009,0,0,1,.19,1.861C1696.23,1626.823,1693.706,1626.842,1690.841,1626.51Z" transform="translate(-1430.176 -1401.496)" stroke="#ac4704" stroke-linecap="round" stroke-linejoin="round" stroke-width="0.4" fill="url(#c)"/><path d="M1912.913,1560.446c-.13,1.789-2.654,1.811-5.519,1.482s-2.1.395-6.113.454-5.395-1.264-5.589-1.837c-.173-.508,1.758-.938,3.824-1.443.26-.062.521-.129.781-.194,2.329-.595,3.871-2.34,5.863-3.865,1.887-1.445,0-10,0-10l6.026-.587s-.289,7.2-.285,10.474a18.479,18.479,0,0,0,.818,3.652A7.018,7.018,0,0,1,1912.913,1560.446Z" transform="translate(-1608.888 -1336.536)" fill="#ffb27d" stroke="#ac4704" stroke-linecap="round" stroke-linejoin="round" stroke-width="0.4"/><path d="M1907.394,1628.64c-2.865-.329-2.1.4-6.113.455s-5.395-1.264-5.589-1.837c-.173-.508,1.758-.938,3.824-1.443l.024.038a11.241,11.241,0,0,0,5.887,1.048c2.692-.273,5.438-1.4,7.295-1.6a7.024,7.024,0,0,1,.192,1.861C1912.783,1628.947,1910.259,1628.969,1907.394,1628.64Z" transform="translate(-1608.888 -1403.249)" stroke="#ac4704" stroke-linecap="round" stroke-linejoin="round" stroke-width="0.4" fill="url(#c)"/><path d="M1892.009,734.973c-1.037-4.267.467-6.254,1.823-7.312a6.471,6.471,0,0,1,2.129-3.129,7.685,7.685,0,0,1,4.159-.8,1.944,1.944,0,0,0-.877-.416,6.449,6.449,0,0,1,2.3.6c9.9-3.816,11.458,10.765,11.25,14.152s-.179,7.377,4.973,10.045c9.83,5.093-3.267,24.283-3.267,24.283.25-2.737-12.38-17.183-18.97-21.509-1.6-2.361-2.174-6.533-2.217-6.862a18.021,18.021,0,0,0,1.348,6.208C1891.659,747.474,1891.214,740.836,1892.009,734.973Z" transform="translate(-1605.571 -663.885)" fill="#c04d01" stroke="#ac4704" stroke-linecap="round" stroke-linejoin="round" stroke-width="0.4"/><path d="M1916.034,836.408c-.032.015,3.182,1.684,5.6,1.023,2.274-.62,3.761-3.569,3.729-3.576-.964-.191-1.241-1.515-1.22-7.2l-.435.086-7.322,1.45s.167,2.3.172,4.475C1916.562,834.485,1916.451,836.213,1916.034,836.408Z" transform="translate(-1625.684 -748.995)" fill="#ffb27d" stroke="#ac4704" stroke-linecap="round" stroke-linejoin="round" stroke-width="0.4"/><path d="M1918.046,828.593s.167,2.3.171,4.475c4.1-.115,6.262-3.853,7.15-5.924Z" transform="translate(-1627.345 -749.461)" fill="#ed975d" stroke="#ac4704" stroke-linecap="round" stroke-linejoin="round" stroke-width="0.4"/><path d="M1747.166,1195.854a1.8,1.8,0,0,0,1.628,2.34l2.861.134,3.026.093a2.431,2.431,0,0,0,1.959-.894A85.1,85.1,0,0,0,1771,1170.335q.191-.6.4-1.222c2.979-8.686,9.154-19.588,12.408-29.456.518-1.572.983-3.051,1.4-4.452q.2-.673.387-1.323a104.659,104.659,0,0,0,3.733-19.649l-23.5.188A517.6,517.6,0,0,1,1747.166,1195.854Z" transform="translate(-1486.253 -981.49)" fill="#d26002" stroke="#ac4704" stroke-linecap="round" stroke-linejoin="round" stroke-width="0.4"/><path d="M1857.142,894.217c.06,11.182-1.64,15.979-1.64,15.979a31.575,31.575,0,0,0,22.019,1.349c.141-.044,8.555-2.427,8.555-2.427-.2-.453-1.863-7.934-2.058-8.35-2.524-5.421-3.213-7.7-3.512-9.364a35.47,35.47,0,0,1-.291-9.368,75.183,75.183,0,0,1,2.9-14.712,76.363,76.363,0,0,1-9.7-3.316,7.576,7.576,0,0,1-5.233,1.941c-2.381-.053-3.154-1.072-3.03-2.185-2.538,1.412-4.564,2.747-4.564,2.747-2.157,3.747-6.532,7.386-6.849,13.135C1853.66,881.059,1857.141,893.9,1857.142,894.217Z" transform="translate(-1574.273 -778.716)" fill="#fff" stroke="#ac4704" stroke-linecap="round" stroke-linejoin="round" stroke-width="0.4"/><path d="M1972.206,953.4c1.027,1.454,3,10.29,7.9,11.4-2.525-6.3-4.442-9.059-4.741-11a47.752,47.752,0,0,1-.291-10.882c-1.64-2.875-2.864-4.846-2.864-4.846-.129-.465-2.607-8.126-3.4-1.278S1971.059,951.77,1972.206,953.4Z" transform="translate(-1669.128 -836.509)" fill="#5f9aa8" stroke="#ac4704" stroke-linecap="round" stroke-linejoin="round" stroke-width="0.4"/><path d="M1894.969,769.954s9.694.16,9.7-5.878,1.262-10.084-4.927-10.441-7.394,1.945-7.886,3.96S1892.447,769.757,1894.969,769.954Z" transform="translate(-1605.635 -689.11)" fill="#ffb27d" stroke="#ac4704" stroke-linecap="round" stroke-linejoin="round" stroke-width="0.4"/><path d="M1912.269,747.167s2.654,7.084,6.727,8.131,5.84-.044,5.84-.044a11.534,11.534,0,0,1-3.773-6.814S1914.271,743.8,1912.269,747.167Z" transform="translate(-1622.577 -682.912)" fill="#a9453d" stroke="#ac4704" stroke-linecap="round" stroke-linejoin="round" stroke-width="0.4"/><path d="M1892.854,750.8a8.559,8.559,0,0,0-2.465,3.119c-.483,1.537-.7,4.7-1.623,4.6,0,0-2-4.815.248-7.539C1891.4,748.086,1892.854,750.8,1892.854,750.8Z" transform="translate(-1602.504 -685.955)" fill="#a9453d" stroke="#ac4704" stroke-linecap="round" stroke-linejoin="round" stroke-width="0.4"/><path d="M1801.308,1082.454l-4.578,13.958,2.611,1.047,7.57-12.332Z" transform="translate(-1527.227 -958.382)" fill="#ffb27d" stroke="#ac4704" stroke-linecap="round" stroke-linejoin="round" stroke-width="0.4"/><path d="M1829.9,874.778s-5.4,2.142-6.961,5.482-3.928,25.743-4.87,28.043-1.651,4.122-1.651,4.122,2.722,2.293,5.459,2.462S1829.9,874.778,1829.9,874.778Z" transform="translate(-1543.476 -787.908)" fill="#f99746" stroke="#ac4704" stroke-linecap="round" stroke-linejoin="round" stroke-width="0.4"/><path d="M1849.73,863.764s-5.608,13.855-5.773,16.659-.66,45.852-.66,45.852.33,1.979-3.464,1.154-4.783-1.649-4.783-1.649,3.628-26.555,2.639-35.791,7.587-24.3,7.587-24.3Z" transform="translate(-1558.852 -778.37)" fill="#f99746" stroke="#ac4704" stroke-linecap="round" stroke-linejoin="round" stroke-width="0.4"/><path d="M1773.257,1278.722l3.286.1a1.9,1.9,0,0,0,1.523-.688,84.8,84.8,0,0,0,14.537-27.406q.19-.6.4-1.222c2.979-8.686,9.154-19.588,12.408-29.456.518-1.572.983-3.052,1.4-4.452q.2-.673.388-1.323l-3.46-2.626s-10.389,16.824-13.606,32.656C1787.342,1258.059,1776.153,1274.607,1773.257,1278.722Z" transform="translate(-1507.856 -1061.884)" fill="#d26002" stroke="#ac4704" stroke-linecap="round" stroke-linejoin="round" stroke-width="0.4"/><path d="M1934.743,1224.7c-.056,7.283.289,23.518,1.176,31.454a1.434,1.434,0,0,0,1.426,1.275h2.452c1.034,0,1.806-.007,2.32-.015a.943.943,0,0,0,.91-.762c2.438-12.407,4.183-22.715,5.461-31.622,1.068-7.455,2.019-13.846,2.749-19.349.736-5.537,1.247-10.173,1.43-14.09.028-.617.05-1.217.061-1.8s.015-1.154.01-1.707l-20.3-1.979C1932.69,1199.591,1934.776,1220.221,1934.743,1224.7Z" transform="translate(-1639.219 -1040.798)" fill="#c04d01" stroke="#ac4704" stroke-linecap="round" stroke-linejoin="round" stroke-width="0.4"/><path d="M1974.568,1283.332c.928,0,1.647-.006,2.156-.013a1.144,1.144,0,0,0,1.106-.924c2.422-12.336,4.157-22.594,5.429-31.462,1.069-7.455,2.019-13.846,2.749-19.349.736-5.537,1.247-10.173,1.43-14.09l-7.45,4.382s4.755,1.678,2.941,14.377S1977.093,1281.534,1974.568,1283.332Z" transform="translate(-1673.99 -1066.706)" fill="#d26002" stroke="#ac4704" stroke-linecap="round" stroke-linejoin="round" stroke-width="0.4"/><path d="M1936.315,926.784s1.43,5.168,6.378,4.508,11.984-3.628,11.984-3.628-2.114-6.682-4.744-15.46c-3.183-10.627-7.123-24.326-8.981-32.967a53.509,53.509,0,0,1-1.009-5.892l-4.105-7.965s-6.121,13.738-6.451,17.2S1936.315,926.784,1936.315,926.784Z" transform="translate(-1636.695 -779.635)" fill="#f99746" stroke="#ac4704" stroke-linecap="round" stroke-linejoin="round" stroke-width="0.4"/><path d="M1907.032,882.065l-5.418-16.685a83.588,83.588,0,0,1,10.278,3.767s2.147,2.768,3.475,9.154c0,0,1.4,15.331-1.73,20.939,0,0-9.9,1.979-25.73-3.464v-3.629s17.318.907,20.865,1.319Z" transform="translate(-1602.472 -780.333)" fill="#ffb27d" stroke="#ac4704" stroke-linecap="round" stroke-linejoin="round" stroke-width="0.4"/><path d="M1970.317,955.278c.221,5.608,1.54,16.493,13.305,22.32.031.015.063.031.094.045-3.183-10.627-7.124-24.326-8.981-32.967C1972.574,947.905,1970.2,952.191,1970.317,955.278Z" transform="translate(-1670.478 -845.23)" fill="#ed7d2b" stroke="#ac4704" stroke-linecap="round" stroke-linejoin="round" stroke-width="0.4"/><path d="M1963.609,865.38s10.044.708,12.463,6.1,3.189,23.311.11,28.589c0,0-4.239,1.207-11.736-.195l-.277-.053s-2.392-5.855-.247-7.01c0,0,6.322.33,5.663-1.759S1963.609,865.38,1963.609,865.38Z" transform="translate(-1664.467 -780.315)" fill="#f99746" stroke="#ac4704" stroke-linecap="round" stroke-linejoin="round" stroke-width="0.4"/><path d="M1822.244,1007.181l.3.951,16.48-5.127a.633.633,0,0,0,.111-.583.466.466,0,0,0-.407-.368Z" transform="translate(-1548.283 -892.718)" fill="#a9453d" stroke="#ac4704" stroke-linecap="round" stroke-linejoin="round" stroke-width="0.4"/><path d="M1815.423,1032.291l1.192-.9.3.951Z" transform="translate(-1542.654 -916.84)" fill="#a9453d" stroke="#ac4704" stroke-linecap="round" stroke-linejoin="round" stroke-width="0.4"/><path d="M1776.861,1160.151s-4.181,2.31-4.731,4.07-.172,5.446.492,5.391,1.654-3.961,2.2-4.236,1.32-1.1,1.32-.495-.55,1.705-.275,1.87,1.155-1.54,1.76-1.87.859-3.05,1.447-3.781S1776.861,1160.151,1776.861,1160.151Z" transform="translate(-1506.708 -1022.128)" fill="#ffb27d" stroke="#ac4704" stroke-linecap="round" stroke-linejoin="round" stroke-width="0.4"/><path d="M1843.219,1009.187s-3.739-2.3-5.307-1.949-5.565,3.249-3.643,3.876,3.48-.031,4.219.424,1.285,1.288,4.731,1.276S1843.219,1009.187,1843.219,1009.187Z" transform="translate(-1557.784 -896.941)" fill="#ffb27d" stroke="#ac4704" stroke-linecap="round" stroke-linejoin="round" stroke-width="0.4"/><g transform="translate(66.528 139.669)"><rect width="66.292" height="79.045" transform="translate(16.221 0)" fill="#fb9c0b" stroke="#ac4704" stroke-linecap="round" stroke-linejoin="round" stroke-width="0.4" opacity="0.15"/><g transform="translate(30.577 39.076)"><rect width="16.094" height="19.994" transform="matrix(-0.901, 0.434, -0.434, -0.901, 38.378, 18.013)" fill="#fb9c0b" stroke="#ac4704" stroke-linecap="round" stroke-linejoin="round" stroke-width="0.4"/><path d="M1053.267,1385.729v23.088l-2.872-1.659-3.339-1.927-2.689-1.553-.836-.481-1.72-.993,1.083-1.875,6.033-10.449,2.882-4.992Z" transform="translate(-1001.331 -1383.595)" fill="#fb9c0b" stroke="#ac4704" stroke-linecap="round" stroke-linejoin="round" stroke-width="0.4"/><rect width="16.094" height="19.995" transform="translate(43.113 17.366) rotate(112.205)" fill="#fb9c0b" stroke="#ac4704" stroke-linecap="round" stroke-linejoin="round" stroke-width="0.4"/><rect width="16.094" height="19.995" transform="matrix(-0.811, 0.585, -0.585, -0.811, 24.748, 25.84)" fill="#fb9c0b" stroke="#ac4704" stroke-linecap="round" stroke-linejoin="round" stroke-width="0.4"/><path d="M1045.1,1451.883v20.569l-3.161,2.517-8.792-11.047-.365-.458-.811-1.018-.055-.07,2.755-2.192,0,0,1.528-1.217,8.1-6.448Z" transform="translate(-993.16 -1438.882)" fill="#fb9c0b" stroke="#ac4704" stroke-linecap="round" stroke-linejoin="round" stroke-width="0.4"/><path d="M1004.1,1392.778v3.353l-6.21,2.992-4,1.927-1.424.685-.687.333-.868.417-.691-1.435-2.111-4.38-2.845-5.9-3.033-6.294,2.43-1.17,12.068-5.815,3.029,6.286,3.541,7.35Z" transform="translate(-952.161 -1377.485)" fill="#fb9c0b" stroke="#ac4704" stroke-linecap="round" stroke-linejoin="round" stroke-width="0.4"/><rect width="51.935" height="16.31" transform="translate(0.001 23.564)" fill="#fb9c0b" stroke="#ac4704" stroke-linecap="round" stroke-linejoin="round" stroke-width="0.4"/></g><rect width="64.418" height="79.045" transform="translate(64.418 79.046) rotate(180)" fill="#fb9c0b" stroke="#ac4704" stroke-linecap="round" stroke-linejoin="round" stroke-width="0.4"/><g transform="translate(0 39.076)"><rect width="16.094" height="19.994" transform="matrix(-0.901, 0.434, -0.434, -0.901, 38.378, 18.013)" fill="#e3ebff" stroke="#ac4704" stroke-linecap="round" stroke-linejoin="round" stroke-width="0.4"/><rect width="16.094" height="19.994" transform="matrix(-0.778, -0.628, 0.628, -0.778, 49.595, 28.26)" fill="#e3ebff" stroke="#ac4704" stroke-linecap="round" stroke-linejoin="round" stroke-width="0.4"/><rect width="16.094" height="19.995" transform="translate(43.113 17.366) rotate(112.206)" fill="#e9efff" stroke="#ac4704" stroke-linecap="round" stroke-linejoin="round" stroke-width="0.4"/><rect width="16.094" height="19.995" transform="translate(24.748 25.84) rotate(144.21)" fill="#e9efff" stroke="#ac4704" stroke-linecap="round" stroke-linejoin="round" stroke-width="0.4"/><rect width="16.094" height="19.994" transform="translate(48.775 36.086) rotate(-128.52)" fill="#e9efff" stroke="#ac4704" stroke-linecap="round" stroke-linejoin="round" stroke-width="0.4"/><rect width="16.094" height="19.994" transform="matrix(-0.901, 0.434, -0.434, -0.901, 53.247, 18.013)" fill="#e9efff" stroke="#ac4704" stroke-linecap="round" stroke-linejoin="round" stroke-width="0.4"/><rect width="64.418" height="16.31" transform="translate(64.418 39.874) rotate(180)" fill="#fb9c0b" stroke="#ac4704" stroke-linecap="round" stroke-linejoin="round" stroke-width="0.4"/></g><path d="M986,1407.059l-3.773,1.818L986,1416.7Z" transform="translate(-921.584 -1362.815)" fill="#e3ebff" stroke="#ac4704" stroke-linecap="round" stroke-linejoin="round" stroke-width="0.4"/></g><rect width="64.418" height="13.72" transform="translate(66.528 136.984)" fill="#db6b03" stroke="#ac4704" stroke-linecap="round" stroke-linejoin="round" stroke-width="0.4" opacity="0.91"/><rect width="18.326" height="13.72" transform="translate(130.946 136.984)" fill="#d86702" stroke="#ac4704" stroke-linecap="round" stroke-linejoin="round" stroke-width="0.4"/><g transform="translate(84.63 140.725)"><path d="M738.757,1176.079H740.2l1.557,4.2,1.557-4.2h1.412l-2.408,6h-1.157Z" transform="translate(-738.757 -1175.977)" fill="#fff" stroke="#ac4704" stroke-linecap="round" stroke-linejoin="round" stroke-width="0.4"/><path d="M774.506,1178.575a3.167,3.167,0,1,1,3.157,3.08A3.08,3.08,0,0,1,774.506,1178.575Zm4.961,0a1.81,1.81,0,0,0-1.8-1.872,1.786,1.786,0,0,0-1.787,1.872,1.81,1.81,0,0,0,1.8,1.872A1.786,1.786,0,0,0,779.467,1178.575Z" transform="translate(-768.259 -1175.494)" fill="#fff" stroke="#ac4704" stroke-linecap="round" stroke-linejoin="round" stroke-width="0.4"/><path d="M815.331,1177.287h-1.813v-1.208h4.935v1.208h-1.812v4.748h-1.311Z" transform="translate(-800.454 -1175.977)" fill="#fff" stroke="#ac4704" stroke-linecap="round" stroke-linejoin="round" stroke-width="0.4"/><path d="M847.513,1176.079h4.493v1.166h-3.191v1.208h2.808v1.166h-2.808v1.251h3.234v1.166h-4.536Z" transform="translate(-828.509 -1175.977)" fill="#fff" stroke="#ac4704" stroke-linecap="round" stroke-linejoin="round" stroke-width="0.4"/></g><rect width="3.268" height="6.843" transform="translate(127.68 218.619)" stroke="#ac4704" stroke-linecap="round" stroke-linejoin="round" stroke-width="0.4" fill="url(#c)"/><rect width="3.268" height="6.843" transform="translate(145.781 218.619)" stroke="#ac4704" stroke-linecap="round" stroke-linejoin="round" stroke-width="0.4" fill="url(#c)"/><rect width="3.268" height="6.843" transform="translate(66.532 218.619)" stroke="#ac4704" stroke-linecap="round" stroke-linejoin="round" stroke-width="0.4" fill="url(#c)"/><rect width="22.701" height="29.882" transform="matrix(-0.997, 0.082, -0.082, -0.997, 114.212, 127.282)" fill="#fff" stroke="#ac4704" stroke-linecap="round" stroke-linejoin="round" stroke-width="0.4"/><rect width="20.625" height="27.846" transform="matrix(-0.997, 0.082, -0.082, -0.997, 113.106, 126.318)" fill="#e7edff" stroke="#ac4704" stroke-linecap="round" stroke-linejoin="round" stroke-width="0.4"/><rect width="10.752" height="0.176" transform="matrix(-0.997, 0.082, -0.082, -0.997, 103.766, 112.506)" fill="#aec3ff" stroke="#ac4704" stroke-linecap="round" stroke-linejoin="round" stroke-width="0.4"/><rect width="10.752" height="0.176" transform="matrix(-0.997, 0.082, -0.082, -0.997, 103.834, 113.355)" fill="#aec3ff" stroke="#ac4704" stroke-linecap="round" stroke-linejoin="round" stroke-width="0.4"/><rect width="10.752" height="0.176" transform="translate(103.902 114.214) rotate(175.289)" fill="#aec3ff" stroke="#ac4704" stroke-linecap="round" stroke-linejoin="round" stroke-width="0.4"/><rect width="5.789" height="0.388" transform="matrix(-0.997, 0.082, -0.082, -0.997, 98.849, 110.112)" fill="#aec3ff" stroke="#ac4704" stroke-linecap="round" stroke-linejoin="round" stroke-width="0.4"/><rect width="7.049" height="0.388" transform="matrix(-0.997, 0.082, -0.082, -0.997, 100.105, 111.05)" fill="#aec3ff" stroke="#ac4704" stroke-linecap="round" stroke-linejoin="round" stroke-width="0.4"/><rect width="4.946" height="4.946" transform="translate(110.903 113.542) rotate(175.288)" fill="#fff" stroke="#ac4704" stroke-linecap="round" stroke-linejoin="round" stroke-width="0.4"/><path d="M867.744,1005.559l-1.177,1.939-1.822-2.794,1.973,1.517Z" transform="translate(-758.099 -894.946)" fill="#233862" stroke="#ac4704" stroke-linecap="round" stroke-linejoin="round" stroke-width="0.4"/><rect width="10.752" height="0.176" transform="translate(104.566 122.632) rotate(175.289)" fill="#aec3ff" stroke="#ac4704" stroke-linecap="round" stroke-linejoin="round" stroke-width="0.4"/><rect width="10.752" height="0.176" transform="translate(104.634 123.481) rotate(175.289)" fill="#aec3ff" stroke="#ac4704" stroke-linecap="round" stroke-linejoin="round" stroke-width="0.4"/><rect width="10.752" height="0.176" transform="translate(104.702 124.34) rotate(175.289)" fill="#aec3ff" stroke="#ac4704" stroke-linecap="round" stroke-linejoin="round" stroke-width="0.4"/><rect width="5.789" height="0.388" transform="translate(99.649 120.238) rotate(175.287)" fill="#aec3ff" stroke="#ac4704" stroke-linecap="round" stroke-linejoin="round" stroke-width="0.4"/><rect width="7.049" height="0.388" transform="matrix(-0.997, 0.082, -0.082, -0.997, 100.905, 121.176)" fill="#aec3ff" stroke="#ac4704" stroke-linecap="round" stroke-linejoin="round" stroke-width="0.4"/><rect width="4.946" height="4.946" transform="translate(111.703 123.675) rotate(175.288)" fill="#fff" stroke="#ac4704" stroke-linecap="round" stroke-linejoin="round" stroke-width="0.4"/><path d="M872.321,1061.56l-1.177,1.939-1.822-2.794,1.972,1.517Z" transform="translate(-761.877 -940.818)" fill="#233862" stroke="#ac4704" stroke-linecap="round" stroke-linejoin="round" stroke-width="0.4"/><rect width="10.752" height="0.176" transform="translate(102.771 104.282) rotate(175.289)" fill="#aec3ff" stroke="#ac4704" stroke-linecap="round" stroke-linejoin="round" stroke-width="0.4"/><rect width="10.752" height="0.176" transform="matrix(-0.997, 0.082, -0.082, -0.997, 102.838, 105.131)" fill="#aec3ff" stroke="#ac4704" stroke-linecap="round" stroke-linejoin="round" stroke-width="0.4"/><rect width="10.752" height="0.176" transform="matrix(-0.997, 0.082, -0.082, -0.997, 102.907, 105.99)" fill="#aec3ff" stroke="#ac4704" stroke-linecap="round" stroke-linejoin="round" stroke-width="0.4"/><rect width="5.789" height="0.388" transform="translate(97.853 101.889) rotate(175.289)" fill="#aec3ff" stroke="#ac4704" stroke-linecap="round" stroke-linejoin="round" stroke-width="0.4"/><rect width="7.049" height="0.388" transform="translate(99.11 102.827) rotate(175.289)" fill="#aec3ff" stroke="#ac4704" stroke-linecap="round" stroke-linejoin="round" stroke-width="0.4"/><rect width="4.946" height="4.946" transform="translate(109.907 105.313) rotate(175.288)" fill="#fff" stroke="#ac4704" stroke-linecap="round" stroke-linejoin="round" stroke-width="0.4"/><path d="M862.046,960.081l-1.177,1.939-1.822-2.794,1.973,1.517Z" transform="translate(-753.397 -857.693)" fill="#233862" stroke="#ac4704" stroke-linecap="round" stroke-linejoin="round" stroke-width="0.4"/><path d="M743.487,958.824a9.424,9.424,0,0,0,1.1-1.353,4.2,4.2,0,0,1,.867-.671s.058.8.119,1.447a10.307,10.307,0,0,1,5.829-.3,2.138,2.138,0,0,1,1.4.924.943.943,0,0,1-.328,1.472c-1.456.906-1.034.363-3.058,1.682s-4.5,1.655-5.981.729l-1.986-.331-.247-3.267S742.337,959.016,743.487,958.824Z" transform="translate(-656.147 -855.647)" fill="#ffb27d" stroke="#ac4704" stroke-linecap="round" stroke-linejoin="round" stroke-width="0.4"/><path d="M456.374,762.173s4.683,5.556,10.647,3.232a18.07,18.07,0,0,0,1.3-5.39c0-.281.005-.554.01-.814.032-2.576.119-4.021.119-4.021h-.006c-.271-.113-9.117-3.745-9.109-3.443C459.487,758.7,456.374,762.173,456.374,762.173Z" transform="translate(-421.088 -687.595)" fill="#ffb27d" stroke="#ac4704" stroke-linecap="round" stroke-linejoin="round" stroke-width="0.4"/><path d="M478.375,761.017a13.835,13.835,0,0,0,8.109,5.8c.032-2.576.119-4.021.119-4.021H486.6C486.351,762.733,478.121,760.551,478.375,761.017Z" transform="translate(-439.239 -695.249)" fill="#ed975d" stroke="#ac4704" stroke-linecap="round" stroke-linejoin="round" stroke-width="0.4"/><path d="M475.557,692.57s-9.948,2.339-11.309-3.879-3.562-10.1,2.732-11.858,8.051.345,9.01,2.31S478.109,691.8,475.557,692.57Z" transform="translate(-426.342 -625.719)" fill="#ffb27d" stroke="#ac4704" stroke-linecap="round" stroke-linejoin="round" stroke-width="0.4"/><path d="M440.646,667.364c-.136.087-2.276.745-6.33-7.33a7.033,7.033,0,0,1,.413-6.433c1.483-2.423,6.743-4.328,11.112-5.157s5.419,1.63,6.448,4.1c1.08,2.594,4.2,4.73,4.2,4.73-3.768,2.1-8.306-.906-9.879-.411s-2.128,2.973-2.246,3.767-.3,1.454-2.276.745-.894,2.8-.578,3.473C441.512,664.849,441.78,666.637,440.646,667.364Z" transform="translate(-402.399 -602.862)" fill="#c04d01" stroke="#ac4704" stroke-linecap="round" stroke-linejoin="round" stroke-width="0.4"/><path d="M267.063,1574.508h-6.023c-1.263,0-2.666-1.265-3.017-3.579s-2.947-3.579-3.509-5.474,2.316-4.562,2.316-4.562l.481-.619.5-.645,4.771,1.122s.118,1.136.191,2.583a33.053,33.053,0,0,1,.019,3.312c-.14,2.527.708,5.247,2.952,5.739S267.063,1574.508,267.063,1574.508Z" transform="translate(-254.441 -1349.056)" stroke="#ac4704" stroke-linecap="round" stroke-linejoin="round" stroke-width="0.4" fill="url(#c)"/><path d="M486.062,1603.717H470.1a1.434,1.434,0,0,1-.339-.1c-1.066-.534-.732-4.615-.6-5.876.024-.233.042-.37.042-.37s5.614-4.49,6.387-1.052c.025.107.053.213.083.316v0c.975,3.217,5.331,4.678,7.848,5.086A2.741,2.741,0,0,1,486.062,1603.717Z" transform="translate(-431.508 -1378.266)" stroke="#ac4704" stroke-linecap="round" stroke-linejoin="round" stroke-width="0.4" fill="url(#c)"/><path d="M435.709,1110.9s-.853,10.638-1.855,23.426c-1.362,17.371-3,38.708-3.162,42.75-.28,7.019-1.4,18.247-1.4,18.247s-2.665,2.667-8,1.543a183.688,183.688,0,0,1-6.112-32.986c-.021-.278-.042-.558-.063-.838-1.263-17.263-3.227-53.616-3.227-53.616Z" transform="translate(-384.373 -977.524)" fill="#f99746" stroke="#ac4704" stroke-linecap="round" stroke-linejoin="round" stroke-width="0.4"/><path d="M435.709,1110.9s-.853,10.638-1.855,23.426l-18.678,29.554c-.021-.278-.042-.558-.063-.838-1.263-17.263-3.227-53.616-3.227-53.616Z" transform="translate(-384.373 -979.356)" fill="#ed7d2b" stroke="#ac4704" stroke-linecap="round" stroke-linejoin="round" stroke-width="0.4"/><path d="M313.162,1092.281s-15.369,38.527-25.474,56.633-13.263,23.158-13.263,23.158-5.79-2.316-6.316-3.895c0,0,3.864-34.954,10.632-43.475,3.824-4.815,8.316-19.264,8.527-24.316s1.369-15.053,1.369-15.053Z" transform="translate(-265.72 -957.639)" fill="#f99746" stroke="#ac4704" stroke-linecap="round" stroke-linejoin="round" stroke-width="0.4"/><path d="M300.982,1080.751l-.163,2.478a5.339,5.339,0,0,1-2.945,6.66s-1.96.791-2.039-.735.171-.952.012-3.1.685-4.179,2.107-4.863l1.166-1.345Z" transform="translate(-288.589 -956.346)" fill="#ffb27d" stroke="#ac4704" stroke-linecap="round" stroke-linejoin="round" stroke-width="0.4"/><path d="M305.135,864.051c1.7.546,1.974.423,1.974.423s8.28-15.074,9.118-16.454,17.579-16.9,17.579-16.9l-4.3-16.042s-19.04,24.656-21.1,28.194c-3.4,5.846-5.388,19.424-5.388,19.424A4.979,4.979,0,0,0,305.135,864.051Z" transform="translate(-294.53 -738.908)" fill="#c04d01" stroke="#ac4704" stroke-linecap="round" stroke-linejoin="round" stroke-width="0.4"/><path d="M411.388,820.473c-.06,3.294-.251,7-.509,10.76q-.024.335-.047.669c-.165,2.33-.873,10.458-.91,10.786-.839,8.531-1.719,15.271-1.882,15.375a.957.957,0,0,1-.655.167c-2.237-.281-8.912.227-14.377-.962a41.436,41.436,0,0,1-12.79-5.3c-.558-.33-1.832-1.2-1.728-1.858.1-.718.29-1.756.529-3.061a165.637,165.637,0,0,0,2.748-21.479q.142-2.552.413-5.035a76.412,76.412,0,0,1,2.229-12.024c1.874-6.747,4.627-11.913,8.082-13.935.451-.253,2.88,1.292,5.11,2.724a9.848,9.848,0,0,0,6.338,1.5l1.856,2.053a20.73,20.73,0,0,1,5.295,11.037q.074.548.126,1.166A72.469,72.469,0,0,1,411.388,820.473Z" transform="translate(-356.808 -721.842)" fill="#f08204" stroke="#ac4704" stroke-linecap="round" stroke-linejoin="round" stroke-width="0.4"/><path d="M494.51,889.994c-.06,3.294-.251,7-.509,10.76q-.024.335-.047.669c-12.779-8-14.748-22.636-14.748-22.636a34.957,34.957,0,0,1,15.13,3.788A72.457,72.457,0,0,1,494.51,889.994Z" transform="translate(-439.93 -791.505)" fill="#c04d01" stroke="#ac4704" stroke-linecap="round" stroke-linejoin="round" stroke-width="0.4"/><path d="M500.724,855.186c.132-1.9-.849-2.211-.849-2.211s-19.268-3.492-20.906-4.007-15.644-15.085-15.644-15.085-5.368-6.054-9.764-4.717c-3.82,1.162-5.313,4.141-5.821,6.98a8.361,8.361,0,0,0,3.883,8.583c6.575,4.033,19.739,11.979,22.839,12.888,6.9,2.023,25.439.162,25.439.162A5.98,5.98,0,0,0,500.724,855.186Z" transform="translate(-413.856 -750.624)" fill="#f08204" stroke="#ac4704" stroke-linecap="round" stroke-linejoin="round" stroke-width="0.4"/><path d="M690.645,748.2H673.535V731.1h17.109Zm-16.4-.711h15.688V731.806H674.246Z" transform="translate(-600.302 -670.679)" fill="#afcdfb" stroke="#ac4704" stroke-linecap="round" stroke-linejoin="round" stroke-width="0.4"/><path d="M689.942,746.75l5.565,7.671,6.629-12.26-7.693,6.993Z" transform="translate(-613.842 -679.792)" fill="#afcdfb" stroke="#ac4704" stroke-linecap="round" stroke-linejoin="round" stroke-width="0.4"/><path d="M835.128,629.833H818.019v-17.11h17.109Zm-16.4-.711h15.688V613.434H818.73Z" transform="translate(-719.538 -573.768)" fill="#f9f9f9" stroke="#ac4704" stroke-linecap="round" stroke-linejoin="round" stroke-width="0.4"/><path d="M834.426,628.378l5.565,7.671,6.629-12.261-7.692,6.993Z" transform="translate(-733.079 -582.863)" fill="#f9f9f9" stroke="#ac4704" stroke-linecap="round" stroke-linejoin="round" stroke-width="0.4"/><path d="M2422.56,1007.6s-.393-3.9,1.648-3.768,2.581,1.069,2.353,1.82a21.357,21.357,0,0,1-2.212,3.231Z" transform="translate(-2043.674 -894.189)" fill="#ffb27d" stroke="#ac4704" stroke-linecap="round" stroke-linejoin="round" stroke-width="0.4"/><path d="M2269.334,1043.241c-3.562.143-10.7-1.948-13.388-3.054a53.732,53.732,0,0,1-6.656-3.275q-.76-.441-1.449-.877a33.359,33.359,0,0,1-7.118-5.719s9.1-7.871,12.777-5.81c4.308,2.419,11.736,10.233,12.99,9.431,1.413-.9,5.355-11.979,5.355-11.979,2.595-.494,3.157,1.469,3.157,1.469S2274.387,1043.038,2269.334,1043.241Z" transform="translate(-1893.635 -908.653)" fill="#f99746" stroke="#ac4704" stroke-linecap="round" stroke-linejoin="round" stroke-width="0.4"/><path d="M2318.051,1609.538s-.373,4.317.539,4.766l11.678-.024s0-1.348-1.875-1.647-5.171-1.4-5.729-3.844S2318.051,1609.538,2318.051,1609.538Z" transform="translate(-1957.39 -1388.865)" stroke="#ac4704" stroke-linecap="round" stroke-linejoin="round" stroke-width="0.4" fill="url(#c)"/><path d="M2297.35,1254.568c-.057,2.823-.193,5.734-.459,8.351-1.261,12.417-1.7,27.42-1.886,30.312-.314,5.021-1.306,13.042-1.306,13.042s-1.967,1.867-5.8.976a130.568,130.568,0,0,1-3.887-23.718c-.011-.2-.022-.4-.032-.6-.083-1.608-.169-3.447-.257-5.43-.584-13.282-1.219-33.014-1.219-33.014l14.655-3.441S2297.494,1247.531,2297.35,1254.568Z" transform="translate(-1928.115 -1086.142)" fill="#f99746" stroke="#ac4704" stroke-linecap="round" stroke-linejoin="round" stroke-width="0.4"/><path d="M2297.35,1254.568c-3.714,6.408-10.793,18.213-13.629,22.932-.584-13.282-1.219-33.014-1.219-33.014l14.655-3.441S2297.494,1247.531,2297.35,1254.568Z" transform="translate(-1928.115 -1087.585)" fill="#c04d01" stroke="#ac4704" stroke-linecap="round" stroke-linejoin="round" stroke-width="0.4"/><path d="M2188.878,1305.453a22.754,22.754,0,0,0-.76,4.359,15.609,15.609,0,0,0,1.591,4.143c.554.666.577-2.9.945-3.455s.169,1.33.464,1.484.787-1.43,1.006-1.993-.787-2.518-.88-3.921S2188.878,1305.453,2188.878,1305.453Z" transform="translate(-1850.21 -1140.96)" fill="#ffb27d" stroke="#ac4704" stroke-linecap="round" stroke-linejoin="round" stroke-width="0.4"/><path d="M2143.776,1585.109s-2.078,1.9-1.673,3.245,2.281,2.246,2.535,3.893,1.267,2.546,2.179,2.546h4.35s.671-1.159-.95-1.508-2.234-2.285-2.133-4.082a31.614,31.614,0,0,0-.152-4.193l-3.447-.8Z" transform="translate(-1812.207 -1369.341)" stroke="#ac4704" stroke-linecap="round" stroke-linejoin="round" stroke-width="0.4" fill="url(#c)"/><path d="M2187.087,1241.395s-13.718,29.352-21.019,42.231-9.582,16.473-9.582,16.473-4.182-1.647-4.562-2.771c0,0,2.791-24.863,7.68-30.924,2.762-3.425,6.008-13.7,6.16-17.3s3.357-12.172,3.357-12.172Z" transform="translate(-1820.355 -1082.75)" fill="#f99746" stroke="#ac4704" stroke-linecap="round" stroke-linejoin="round" stroke-width="0.4"/><path d="M2236.734,1064.469a23.772,23.772,0,0,1-12.058,6.259c-3.331.638-10.093,1.254-11.77-1.118a4.248,4.248,0,0,1-.31-2.669c.226-3.346,1.067-9.814-2.732-22.812a22.112,22.112,0,0,1-.73-3.474c-.83-6.65,1.975-11.369,5.268-13.475,8.031-5.137,11.955-1.589,11.955-1.589a14.484,14.484,0,0,1,6.7,8.41C2237.256,1046.526,2236.734,1064.469,2236.734,1064.469Z" transform="translate(-1867.446 -910.09)" fill="#f99746" stroke="#ac4704" stroke-linecap="round" stroke-linejoin="round" stroke-width="0.4"/><path d="M2253.662,988.853a14.29,14.29,0,0,0,8.791-.233s.81-.423.146-1.334a13.206,13.206,0,0,0,.067-1.441,21.005,21.005,0,0,0-.023-2.319l-3.089-2.013-2.931-1.929A10.68,10.68,0,0,1,2253.662,988.853Z" transform="translate(-1904.315 -874.247)" fill="#ffb27d" stroke="#ac4704" stroke-linecap="round" stroke-linejoin="round" stroke-width="0.4"/><path d="M2271.512,991.032a9.954,9.954,0,0,0,5.885,3.92c.051-1.486-.047-3.006-.047-3.006l-3.066-1.327Z" transform="translate(-1919.045 -883.383)" fill="#ed985f" stroke="#ac4704" stroke-linecap="round" stroke-linejoin="round" stroke-width="0.4"/><path d="M2268.734,940.714s-7.441,2.777-9.1-1.808-3.731-7.315.95-9.282,6.241-.548,7.172.848S2270.627,939.874,2268.734,940.714Z" transform="translate(-1907.661 -832.494)" fill="#ffb27d" stroke="#ac4704" stroke-linecap="round" stroke-linejoin="round" stroke-width="0.4"/><path d="M2239.237,915.871c-.085-.066-.26-.1-.622-.048a1.485,1.485,0,0,1,.632-.321,1.837,1.837,0,0,1,.882-1.831,1.1,1.1,0,0,0-.368.878c.792-1.217,2.774-2.379,8.76-3.078,7.888-.921,6.311,4.558,5.422,5.349s-3.74-.334-5.585.185-1.665,3.3-2.228,3.794-.442-.209-1.378-.428-.737,1.222-.306,2.1-.509,2.333-.509,2.333l-1.448-1.05c-1.448-1.05-3.649-6.275-3.336-7.543C2239.181,916.1,2239.208,915.985,2239.237,915.871Z" transform="translate(-1891.897 -818.327)" fill="#c04d01" stroke="#ac4704" stroke-linecap="round" stroke-linejoin="round" stroke-width="0.4"/><path d="M2213.291,1142.585c.226-3.346,1.067-9.814-2.732-22.812a22.252,22.252,0,0,1-.731-3.474h0c2.823-.931,7.967,1.14,7.967,1.14S2219,1134.62,2213.291,1142.585Z" transform="translate(-1868.14 -985.615)" fill="#ed7d2b" stroke="#ac4704" stroke-linecap="round" stroke-linejoin="round" stroke-width="0.4"/><path d="M2183.8,1039.109a18.474,18.474,0,0,0-7.821,10.664c-1.633,6.033-4.159,15.008-4.463,17.815s3.081,19.239,3.081,19.239a2.2,2.2,0,0,0,1.647.114,2.718,2.718,0,0,0,1.64-.981s.81-10.952.6-16.123c-.087-2.149,9.946-15.735,15.361-17.485C2195.975,1051.665,2183.8,1039.109,2183.8,1039.109Z" transform="translate(-1836.509 -922.089)" fill="#f99746" stroke="#ac4704" stroke-linecap="round" stroke-linejoin="round" stroke-width="0.4"/><path d="M2251.5,1016.737s-.973.476-2.86,2.986c0,0,3.514,4.407,8.586,3.832a16.926,16.926,0,0,1-.593-3.734S2252.389,1019.348,2251.5,1016.737Z" transform="translate(-1900.167 -904.729)" fill="#ed7d2b" stroke="#ac4704" stroke-linecap="round" stroke-linejoin="round" stroke-width="0.4"/><path d="M2294.377,1025.534s2.71.707,3.36,2.655a4.127,4.127,0,0,0,.068-2.621,8.455,8.455,0,0,0-1.605-1.907S2296.569,1024.857,2294.377,1025.534Z" transform="translate(-1937.915 -910.443)" fill="#ed7d2b" stroke="#ac4704" stroke-linecap="round" stroke-linejoin="round" stroke-width="0.4"/><g transform="translate(367.932 86.72)"><path d="M2393.639,894.107a115.532,115.532,0,0,0-21.626,1.848l-1.211-3.05-1.327-3.342s11.631-5.007,18.623-11.98Z" transform="translate(-2367.823 -877.313)" fill="#fff" stroke="#ac4704" stroke-linecap="round" stroke-linejoin="round" stroke-width="0.4"/><path d="M2475.138,876.149l5.764,17.016h0a1.534,1.534,0,0,0,1.01-1.983l-5.073-14.3a1.266,1.266,0,0,0-1.7-.735Z" transform="translate(-2455.022 -876.042)" fill="#f99746" stroke="#ac4704" stroke-linecap="round" stroke-linejoin="round" stroke-width="0.4"/><path d="M2399.906,962.926a115.562,115.562,0,0,0-21.626,1.848l-1.21-3.05C2387.956,959.5,2399.906,962.926,2399.906,962.926Z" transform="translate(-2374.09 -946.132)" fill="#d7e1ff" stroke="#ac4704" stroke-linecap="round" stroke-linejoin="round" stroke-width="0.4"/><path d="M2367.412,943.735l-3.136.552c.047,0-2.915.576-3.886-2.049a2.12,2.12,0,0,1-.186-.567c-.754-3.272,1.042-3.875,1.042-3.875l4.037-1.573,1.282,4.539v.016Z" transform="translate(-2360.019 -925.707)" fill="#f99746" stroke="#ac4704" stroke-linecap="round" stroke-linejoin="round" stroke-width="0.4"/><path d="M2369.165,965.174l-3.137.552c.047,0-2.914.576-3.885-2.049,1.774-1.291,6.176-1.476,6.176-1.476v.016Z" transform="translate(-2361.772 -947.145)" fill="#ed7d2b" stroke="#ac4704" stroke-linecap="round" stroke-linejoin="round" stroke-width="0.4"/></g><path d="M2422.538,978.288h0a2.086,2.086,0,0,1-2.446-1.63l-1.984-9.931a2.084,2.084,0,0,1,1.63-2.445h0a2.085,2.085,0,0,1,2.446,1.631l1.985,9.931A2.085,2.085,0,0,1,2422.538,978.288Z" transform="translate(-2039.992 -861.61)" fill="#d7e1ff" stroke="#ac4704" stroke-linecap="round" stroke-linejoin="round" stroke-width="0.4"/><path d="M2436.034,989.183s-1.535.612-1.253,1.288,2.233,1.6,2.541,1.072S2437,988.612,2436.034,989.183Z" transform="translate(-2053.756 -882.163)" fill="#ffb27d" stroke="#ac4704" stroke-linecap="round" stroke-linejoin="round" stroke-width="0.4"/><path d="M2420.5,1004.988a21.587,21.587,0,0,1-.308-2.291c-.018-.721-.226-1.266-.057-1.287s.264.106.333.338.489,1.633.489,1.633l-.134,1.389Z" transform="translate(-2041.643 -892.232)" fill="#ffb27d" stroke="#ac4704" stroke-linecap="round" stroke-linejoin="round" stroke-width="0.4"/></g></svg>