<svg xmlns="http://www.w3.org/2000/svg" xmlns:xlink="http://www.w3.org/1999/xlink" width="44.873" height="46" viewBox="0 0 44.873 46"><defs><filter id="a" x="0" y="0" width="43.615" height="46" filterUnits="userSpaceOnUse"><feOffset dy="3" input="SourceAlpha"/><feGaussianBlur stdDeviation="2.5" result="b"/><feFlood flood-opacity="0.169"/><feComposite operator="in" in2="b"/><feComposite in="SourceGraphic"/></filter><filter id="c" x="14.3" y="14.063" width="30.574" height="31.161" filterUnits="userSpaceOnUse"><feOffset dy="3" input="SourceAlpha"/><feGaussianBlur stdDeviation="2.5" result="d"/><feFlood flood-opacity="0.169"/><feComposite operator="in" in2="d"/><feComposite in="SourceGraphic"/></filter><filter id="e" x="16.252" y="18.429" width="24.701" height="23.331" filterUnits="userSpaceOnUse"><feOffset dy="3" input="SourceAlpha"/><feGaussianBlur stdDeviation="2.5" result="f"/><feFlood flood-opacity="0.169"/><feComposite operator="in" in2="f"/><feComposite in="SourceGraphic"/></filter></defs><g transform="translate(7.5 4.5)"><g transform="matrix(1, 0, 0, 1, -7.5, -4.5)" filter="url(#a)"><path d="M25.837,4.367c-3.063-3.231-7.618-2.65-10.429.941l-1.1,1.4-1.1-1.4C10.4,1.717,5.84,1.136,2.777,4.367-.732,8.076-.917,14.733,2.224,18.753L13.039,32.578a1.532,1.532,0,0,0,2.532,0L26.385,18.753c3.147-4.02,2.962-10.677-.548-14.386Z" transform="translate(7.5 2.25)" fill="#fefcfc"/></g><g transform="matrix(1, 0, 0, 1, -7.5, -4.5)" filter="url(#c)"><g transform="translate(21.8 18.56)" fill="#fefcfc" stroke="#db6b03" stroke-width="1"><ellipse cx="7.787" cy="8.081" rx="7.787" ry="8.081" stroke="none"/><ellipse cx="7.787" cy="8.081" rx="7.287" ry="7.581" fill="none"/></g></g><g transform="matrix(1, 0, 0, 1, -7.5, -4.5)" filter="url(#e)"><path d="M3017,438.886l3.368,3.035,4.875-6.254" transform="translate(-2992.58 -412.12)" fill="none" stroke="#db6b03" stroke-width="2"/></g></g></svg>