<svg xmlns="http://www.w3.org/2000/svg" width="13.12" height="17.493" viewBox="0 0 13.12 17.493"><g transform="translate(0)"><path d="M7.653,4.647V0H.82A.818.818,0,0,0,0,.82V16.673a.818.818,0,0,0,.82.82H12.3a.818.818,0,0,0,.82-.82V5.467H8.473A.822.822,0,0,1,7.653,4.647Zm2.227,7.38H7.653V14.76a.547.547,0,0,1-.547.547H6.013a.547.547,0,0,1-.547-.547V12.027H3.24a.547.547,0,0,1-.385-.935l3.294-3.27a.583.583,0,0,1,.821,0l3.294,3.27A.546.546,0,0,1,9.88,12.027Zm3-8.44L9.536.239A.819.819,0,0,0,8.955,0H8.747V4.373H13.12V4.165A.817.817,0,0,0,12.881,3.588Z" transform="translate(0)" fill="#fefefe"/></g></svg>