<svg xmlns="http://www.w3.org/2000/svg" xmlns:xlink="http://www.w3.org/1999/xlink" width="1046.13" height="1124.972" viewBox="0 0 1046.13 1124.972"><defs><linearGradient id="a" x1="0.066" y1="0.761" x2="1.269" y2="0.448" gradientUnits="objectBoundingBox"><stop offset="0" stop-color="#ac4704"/><stop offset="1" stop-color="#ff6804"/></linearGradient><filter id="b" x="140.135" y="0" width="905.995" height="905.995" filterUnits="userSpaceOnUse"><feOffset dy="15" input="SourceAlpha"/><feGaussianBlur stdDeviation="17.5" result="c"/><feFlood flood-opacity="0.161"/><feComposite operator="in" in2="c"/><feComposite in="SourceGraphic"/></filter><linearGradient id="d" x1="0.077" y1="0.5" x2="1.077" y2="0.5" gradientUnits="objectBoundingBox"><stop offset="0" stop-color="#322e2e"/><stop offset="1" stop-color="#242121"/></linearGradient><clipPath id="e"><path d="M290.492,174.48,202.813,225.1V108.945l87.679-50.621Z" transform="translate(-202.813 -58.323)" fill="none"/></clipPath></defs><g transform="translate(169.63 -156.621)"><ellipse cx="80.475" cy="80.475" rx="80.475" ry="80.475" transform="translate(458.941 930.557) rotate(31)" opacity="0.6" fill="url(#a)"/><path d="M24.541,540.382C83.753,677.694,185.72,727.22,255.472,746.86c86.458,24.35,216.729,11.586,301.78-53.41,74.063-56.6,135.733-149.491,165.076-274.06,23.381-99.259,22.487-178.429,7.367-257.974S654.927-18.645,551.057,2.979,418.086,122.3,389.228,188.3c-41.454,94.8-86.061,114.147-167.067,99.009S81.171,275.11,38.81,315.65C5.173,347.841-21.374,433.907,24.541,540.382Z" transform="translate(566.199 379.574) rotate(76)" fill="#fb9c0b" opacity="0.48" style="mix-blend-mode:multiply;isolation:isolate"/><g transform="translate(-59.66 194.121)"><g transform="matrix(1, 0, 0, 1, -109.97, -37.5)" filter="url(#b)"><path d="M283.194,0C439.6,0,566.389,126.79,566.389,283.194S439.6,566.389,283.194,566.389,0,439.6,0,283.194,126.79,0,283.194,0Z" transform="translate(192.64 438) rotate(-45)" fill="#c65301" opacity="0.73"/></g><g transform="translate(-13.198 128.186)"><g transform="translate(254.722 141.458)"><g transform="translate(0 42.112)"><g transform="translate(0 21.815)" opacity="0.8"><path d="M122.424,323.3,405.746,159.882c15.065-8.752,39.595-8.747,54.759.009l148.784,85.935c15.162,8.756,15.238,22.967.175,31.719L326.142,440.962c-15.082,8.763-39.595,8.745-54.757-.011L122.6,355.017C107.437,346.261,107.34,332.061,122.424,323.3Z" transform="translate(-111.169 -153.321)" fill="#fff" opacity="0" style="mix-blend-mode:multiply;isolation:isolate"/><path d="M122.832,322.869,405.106,160.056c15.013-8.719,39.458-8.715,54.569.009L607.66,245.539c15.108,8.726,15.186,22.887.173,31.61L325.56,439.96c-15.03,8.734-39.458,8.717-54.566-.009L123.005,354.48C107.9,345.752,107.8,331.6,122.832,322.869Z" transform="translate(-110.65 -153.091)" fill="#fbfcfc" opacity="0.02" style="mix-blend-mode:multiply;isolation:isolate"/><path d="M123.242,322.44,404.465,160.232c14.961-8.689,39.322-8.685,54.38.009l147.186,85.012c15.056,8.7,15.132,22.809.173,31.5L324.98,438.96c-14.98,8.7-39.322,8.685-54.378-.011L123.413,353.94C108.357,345.244,108.26,331.142,123.242,322.44Z" transform="translate(-110.13 -152.86)" fill="#f7f8fa" opacity="0.039" style="mix-blend-mode:multiply;isolation:isolate"/><path d="M123.65,322.01l280.176-161.6c14.907-8.659,39.184-8.657,54.188.009L604.4,244.966c15,8.667,15.08,22.729.173,31.39L324.4,437.96c-14.926,8.672-39.186,8.654-54.188-.011L123.821,353.4C108.819,344.735,108.719,330.682,123.65,322.01Z" transform="translate(-109.61 -152.63)" fill="#f3f5f7" opacity="0.059" style="mix-blend-mode:multiply;isolation:isolate"/><path d="M124.058,321.582l279.128-161c14.855-8.628,39.048-8.624,54,.009l145.586,84.09c14.95,8.635,15.026,22.647.171,31.28l-279.128,161c-14.875,8.644-39.048,8.626-54-.009L124.229,352.861C109.278,344.226,109.181,330.223,124.058,321.582Z" transform="translate(-109.091 -152.4)" fill="#eff2f4" opacity="0.078" style="mix-blend-mode:multiply;isolation:isolate"/><path d="M124.466,321.152,402.545,160.758c14.8-8.6,38.911-8.594,53.812.009l144.786,83.628c14.9,8.6,14.974,22.569.171,31.169L323.233,435.958c-14.822,8.611-38.909,8.594-53.808-.011L124.637,352.323C109.738,343.717,109.641,329.765,124.466,321.152Z" transform="translate(-108.571 -152.169)" fill="#eaeef2" opacity="0.098" style="mix-blend-mode:multiply;isolation:isolate"/><path d="M124.874,320.722,401.9,160.934c14.751-8.568,38.775-8.564,53.622.009l143.989,83.165c14.844,8.574,14.92,22.489.169,31.059L322.653,434.958c-14.771,8.581-38.775,8.564-53.619-.011L125.043,351.784C110.2,343.209,110.1,329.305,124.874,320.722Z" transform="translate(-108.052 -151.939)" fill="#e6ebef" opacity="0.118" style="mix-blend-mode:multiply;isolation:isolate"/><path d="M125.282,320.3,401.266,161.111c14.7-8.54,38.635-8.536,53.431.009l143.186,82.7c14.794,8.544,14.868,22.409.171,30.951L322.071,433.956c-14.719,8.551-38.637,8.536-53.429-.009l-143.191-82.7C110.658,342.7,110.561,328.847,125.282,320.3Z" transform="translate(-107.533 -151.709)" fill="#e2e8ec" opacity="0.137" style="mix-blend-mode:multiply;isolation:isolate"/><path d="M125.69,319.867,400.625,161.285c14.647-8.507,38.5-8.5,53.241.009l142.388,82.242c14.74,8.514,14.816,22.331.169,30.841L321.488,432.956c-14.665,8.52-38.5,8.5-53.239-.011l-142.391-82.24C111.118,342.191,111.023,328.387,125.69,319.867Z" transform="translate(-107.013 -151.479)" fill="#dee4ea" opacity="0.157" style="mix-blend-mode:multiply;isolation:isolate"/><path d="M126.1,319.437,399.985,161.461c14.6-8.477,38.362-8.473,53.053.009l141.589,81.779c14.686,8.484,14.762,22.251.166,30.731L320.906,431.956c-14.613,8.49-38.362,8.473-53.049-.011L126.267,350.168C111.578,341.684,111.483,327.927,126.1,319.437Z" transform="translate(-106.493 -151.248)" fill="#dae1e7" opacity="0.176" style="mix-blend-mode:multiply;isolation:isolate"/><path d="M126.506,319.008,399.344,161.636c14.544-8.447,38.226-8.443,52.863.009L593,242.962c14.637,8.453,14.71,22.171.169,30.62L320.324,430.953c-14.561,8.46-38.224,8.445-52.861-.009L126.675,349.628C112.038,341.174,111.943,327.467,126.506,319.008Z" transform="translate(-105.974 -151.017)" fill="#d6dde4" opacity="0.196" style="mix-blend-mode:multiply;isolation:isolate"/><path d="M126.914,318.579,398.706,161.813c14.49-8.419,38.088-8.414,52.672.006l139.989,80.856c14.583,8.423,14.656,22.093.167,30.512L319.744,429.954c-14.509,8.43-38.088,8.412-52.672-.011L127.081,349.089C112.5,340.666,112.4,327.009,126.914,318.579Z" transform="translate(-105.455 -150.788)" fill="#d2dae2" opacity="0.216" style="mix-blend-mode:multiply;isolation:isolate"/><path d="M127.322,318.15,398.065,161.987c14.438-8.386,37.951-8.382,52.482.009l139.191,80.394c14.531,8.393,14.6,22.013.167,30.4L319.161,428.954c-14.457,8.4-37.952,8.382-52.482-.011L127.488,348.549C112.958,340.159,112.865,326.549,127.322,318.15Z" transform="translate(-104.935 -150.557)" fill="#ced7df" opacity="0.235" style="mix-blend-mode:multiply;isolation:isolate"/><path d="M127.73,317.72,397.425,162.163c14.386-8.356,37.813-8.352,52.294.009L588.108,242.1c14.479,8.363,14.552,21.931.166,30.289L318.579,427.951c-14.405,8.369-37.813,8.354-52.292-.009L127.9,348.012C113.418,339.649,113.325,326.089,127.73,317.72Z" transform="translate(-104.415 -150.327)" fill="#c9d3dc" opacity="0.255" style="mix-blend-mode:multiply;isolation:isolate"/><path d="M128.138,317.29,396.787,162.339c14.332-8.326,37.675-8.321,52.1.009l137.591,79.47c14.425,8.332,14.5,21.853.164,30.181L318,426.951c-14.351,8.339-37.677,8.321-52.1-.011L128.3,347.472C113.878,339.139,113.785,325.629,128.138,317.29Z" transform="translate(-103.896 -150.096)" fill="#c5d0da" opacity="0.275" style="mix-blend-mode:multiply;isolation:isolate"/><path d="M128.546,316.862l267.6-154.349c14.282-8.3,37.539-8.291,51.914.009l136.791,79.01c14.373,8.3,14.446,21.773.164,30.071l-267.6,154.349c-14.3,8.306-37.539,8.291-51.912-.011L128.711,346.933C114.338,338.631,114.245,325.171,128.546,316.862Z" transform="translate(-103.377 -149.866)" fill="#c1cdd7" opacity="0.294" style="mix-blend-mode:multiply;isolation:isolate"/><path d="M128.954,316.433,395.506,162.689c14.23-8.265,37.4-8.261,51.726.009L583.22,241.245c14.321,8.272,14.394,21.693.164,29.961L316.835,424.949c-14.25,8.278-37.4,8.263-51.723-.009L129.119,346.4C114.8,338.124,114.7,324.711,128.954,316.433Z" transform="translate(-102.857 -149.636)" fill="#bdc9d4" opacity="0.314" style="mix-blend-mode:multiply;isolation:isolate"/><path d="M129.362,316l265.5-153.138c14.178-8.235,37.266-8.231,51.535.009l135.191,78.085c14.269,8.242,14.341,21.616.164,29.853l-265.5,153.138c-14.2,8.248-37.266,8.231-51.533-.011L129.526,345.856C115.257,337.614,115.166,324.251,129.362,316Z" transform="translate(-102.337 -149.405)" fill="#b9c6d2" opacity="0.333" style="mix-blend-mode:multiply;isolation:isolate"/><path d="M129.77,315.574,394.226,163.041c14.124-8.2,37.128-8.2,51.345.006l134.391,77.624c14.215,8.211,14.286,21.536.162,29.742L315.67,422.949c-14.144,8.216-37.128,8.2-51.343-.011L129.934,345.316C115.719,337.105,115.626,323.792,129.77,315.574Z" transform="translate(-101.818 -149.175)" fill="#b5c3cf" opacity="0.353" style="mix-blend-mode:multiply;isolation:isolate"/><path d="M130.18,315.145,393.585,163.216c14.072-8.174,36.989-8.17,51.155.009l133.591,77.161c14.163,8.181,14.237,21.456.162,29.632L315.088,421.947c-14.09,8.188-36.989,8.17-51.153-.009L130.342,344.777C116.179,336.6,116.086,323.332,130.18,315.145Z" transform="translate(-101.298 -148.945)" fill="#b1bfcc" opacity="0.373" style="mix-blend-mode:multiply;isolation:isolate"/><path d="M130.588,314.718,392.945,163.391c14.021-8.144,36.853-8.14,50.967.009L576.7,240.1c14.111,8.151,14.183,21.378.162,29.522L314.506,420.947c-14.038,8.155-36.853,8.14-50.962-.011l-132.8-76.7C116.639,336.089,116.546,322.873,130.588,314.718Z" transform="translate(-100.779 -148.714)" fill="#adbcca" opacity="0.392" style="mix-blend-mode:multiply;isolation:isolate"/><path d="M131,314.288,392.3,163.567c13.969-8.114,36.717-8.11,50.776.006l131.994,76.238c14.057,8.12,14.128,21.3.16,29.414L313.926,419.947c-13.988,8.125-36.717,8.11-50.774-.011l-132-76.236C117.1,335.58,117.008,322.413,131,314.288Z" transform="translate(-100.259 -148.484)" fill="#a9b9c7" opacity="0.412" style="mix-blend-mode:multiply;isolation:isolate"/><path d="M131.4,313.859,391.666,163.742c13.917-8.082,36.579-8.079,50.586.009l131.192,75.778c14.008,8.088,14.077,21.216.162,29.3L313.344,418.945c-13.934,8.1-36.579,8.079-50.584-.009l-131.2-75.775C117.558,335.071,117.468,321.954,131.4,313.859Z" transform="translate(-99.74 -148.254)" fill="#a4b5c4" opacity="0.431" style="mix-blend-mode:multiply;isolation:isolate"/><path d="M131.812,313.43,391.025,163.918c13.865-8.053,36.442-8.049,50.4.009l130.394,75.315c13.954,8.058,14.025,21.136.16,29.191L312.761,417.945c-13.882,8.064-36.442,8.049-50.4-.011L131.972,342.621C118.018,334.564,117.927,321.494,131.812,313.43Z" transform="translate(-99.22 -148.023)" fill="#a0b2c2" opacity="0.451" style="mix-blend-mode:multiply;isolation:isolate"/><path d="M132.22,313,390.385,164.094c13.813-8.023,36.306-8.019,50.208.009l129.594,74.852c13.9,8.027,13.971,21.058.158,29.083L312.18,416.945c-13.83,8.034-36.3,8.019-50.206-.011l-129.6-74.85C118.478,334.054,118.388,321.034,132.22,313Z" transform="translate(-98.701 -147.793)" fill="#9cafbf" opacity="0.471" style="mix-blend-mode:multiply;isolation:isolate"/><path d="M132.628,312.571l257.117-148.3c13.761-7.993,36.168-7.988,50.018.007l128.8,74.392c13.847,8,13.917,20.978.158,28.973L311.6,415.942c-13.776,8.006-36.168,7.989-50.015-.009l-128.8-74.39C118.938,333.545,118.848,320.575,132.628,312.571Z" transform="translate(-98.181 -147.562)" fill="#98abbc" opacity="0.49" style="mix-blend-mode:multiply;isolation:isolate"/><path d="M133.036,312.143l256.07-147.7c13.707-7.963,36.03-7.958,49.827.009l127.994,73.929c13.8,7.969,13.867,20.9.158,28.863l-256.068,147.7c-13.727,7.973-36.032,7.958-49.827-.011l-128-73.927C119.4,333.038,119.309,320.116,133.036,312.143Z" transform="translate(-97.662 -147.333)" fill="#94a8ba" opacity="0.51" style="mix-blend-mode:multiply;isolation:isolate"/><path d="M133.444,311.713,388.465,164.62c13.655-7.932,35.893-7.928,49.639.009L565.3,238.1c13.744,7.939,13.813,20.82.158,28.754L310.435,413.943c-13.675,7.943-35.893,7.928-49.637-.011L133.6,340.467C119.858,332.529,119.769,319.656,133.444,311.713Z" transform="translate(-97.142 -147.102)" fill="#90a4b7" opacity="0.529" style="mix-blend-mode:multiply;isolation:isolate"/><path d="M133.852,311.284,387.825,164.8c13.6-7.9,35.757-7.9,49.449.007l126.4,73.006c13.69,7.909,13.759,20.74.156,28.644L309.853,412.94c-13.621,7.913-35.757,7.9-49.447-.009l-126.4-73C120.318,332.019,120.229,319.2,133.852,311.284Z" transform="translate(-96.623 -146.872)" fill="#8ca1b4" opacity="0.549" style="mix-blend-mode:multiply;isolation:isolate"/><path d="M134.26,310.854,387.187,164.972c13.549-7.872,35.619-7.867,49.259.006L562.04,237.522c13.638,7.878,13.707,20.66.158,28.534L309.271,411.94c-13.569,7.883-35.619,7.867-49.257-.011l-125.6-72.541C120.778,331.512,120.689,318.737,134.26,310.854Z" transform="translate(-96.104 -146.641)" fill="#889eb2" opacity="0.569" style="mix-blend-mode:multiply;isolation:isolate"/><path d="M134.668,310.426,386.546,165.146c13.5-7.842,35.483-7.837,49.068.009l124.8,72.083c13.586,7.846,13.655,20.58.156,28.421L308.688,410.941c-13.515,7.852-35.48,7.837-49.066-.011l-124.8-72.081C121.238,331,121.151,318.28,134.668,310.426Z" transform="translate(-95.584 -146.411)" fill="#839aaf" opacity="0.588" style="mix-blend-mode:multiply;isolation:isolate"/><path d="M135.076,310,385.905,165.322c13.448-7.811,35.344-7.807,48.88.009l124,71.62c13.532,7.816,13.6,20.5.153,28.313L308.108,409.938c-13.465,7.822-35.346,7.807-48.878-.009l-124-71.618C121.7,330.494,121.611,317.82,135.076,310Z" transform="translate(-95.064 -146.181)" fill="#7f97ac" opacity="0.608" style="mix-blend-mode:multiply;isolation:isolate"/><path d="M135.484,309.569,385.265,165.5c13.4-7.781,35.208-7.777,48.69.006l123.2,71.16c13.482,7.785,13.549,20.42.156,28.2L307.526,408.938c-13.413,7.792-35.208,7.777-48.688-.011l-123.2-71.155C122.157,329.984,122.071,317.36,135.484,309.569Z" transform="translate(-94.545 -145.95)" fill="#7b94aa" opacity="0.627" style="mix-blend-mode:multiply;isolation:isolate"/><path d="M135.892,309.14,384.626,165.672c13.342-7.749,35.07-7.746,48.5.009l122.4,70.7c13.428,7.755,13.5,20.342.154,28.093L306.944,407.938c-13.359,7.761-35.072,7.746-48.5-.011l-122.4-70.695C122.619,329.478,122.531,316.9,135.892,309.14Z" transform="translate(-94.025 -145.72)" fill="#7790a7" opacity="0.647" style="mix-blend-mode:multiply;isolation:isolate"/><path d="M136.3,308.711,383.986,165.849c13.29-7.72,34.933-7.716,48.31.009l121.6,70.234c13.374,7.725,13.443,20.262.154,27.985L306.362,406.936c-13.307,7.731-34.934,7.716-48.307-.009l-121.6-70.234C123.079,328.968,122.991,316.442,136.3,308.711Z" transform="translate(-93.506 -145.49)" fill="#738da4" opacity="0.667" style="mix-blend-mode:multiply;isolation:isolate"/><path d="M136.71,308.281,383.345,166.025c13.238-7.69,34.8-7.686,48.122.007l120.8,69.774c13.324,7.695,13.391,20.182.154,27.874L305.779,405.936c-13.255,7.7-34.795,7.686-48.119-.009l-120.8-69.772C123.539,328.459,123.452,315.982,136.71,308.281Z" transform="translate(-92.986 -145.259)" fill="#6f8aa2" opacity="0.686" style="mix-blend-mode:multiply;isolation:isolate"/><path d="M137.118,307.852,382.7,166.2c13.186-7.66,34.661-7.656,47.931.007l120,69.311c13.27,7.666,13.337,20.1.151,27.764L305.2,404.936c-13.2,7.669-34.661,7.653-47.931-.011l-120-69.309C124,327.952,123.912,315.522,137.118,307.852Z" transform="translate(-92.466 -145.029)" fill="#6b869f" opacity="0.706" style="mix-blend-mode:multiply;isolation:isolate"/><path d="M137.526,307.423l244.54-141.048c13.134-7.627,34.52-7.625,47.741.009l119.2,68.848c13.218,7.636,13.285,20.024.151,27.656L304.617,403.934c-13.151,7.64-34.523,7.625-47.741-.009l-119.2-68.848C124.459,327.443,124.372,315.063,137.526,307.423Z" transform="translate(-91.947 -144.799)" fill="#67839c" opacity="0.725" style="mix-blend-mode:multiply;isolation:isolate"/><path d="M137.934,306.994,381.426,166.551c13.082-7.6,34.384-7.6,47.553.006l118.4,68.388c13.167,7.606,13.234,19.944.151,27.546L304.035,402.934c-13.1,7.61-34.384,7.6-47.551-.009l-118.4-68.388C124.919,326.934,124.832,314.6,137.934,306.994Z" transform="translate(-91.428 -144.568)" fill="#63809a" opacity="0.745" style="mix-blend-mode:multiply;isolation:isolate"/><path d="M138.342,306.564,380.785,166.727c13.03-7.569,34.248-7.565,47.363.006l117.6,67.928c13.112,7.573,13.179,19.864.151,27.433L303.452,401.932c-13.045,7.58-34.248,7.565-47.361-.009L138.491,334C125.378,326.424,125.294,314.144,138.342,306.564Z" transform="translate(-90.908 -144.338)" fill="#5e7c97" opacity="0.765" style="mix-blend-mode:multiply;isolation:isolate"/><path d="M138.75,306.135,380.144,166.9c12.978-7.537,34.112-7.532,47.174.009l116.8,67.465c13.061,7.543,13.125,19.784.149,27.323L302.87,400.931c-12.993,7.55-34.11,7.535-47.17-.009L138.9,333.46C125.838,325.917,125.754,313.684,138.75,306.135Z" transform="translate(-90.388 -144.107)" fill="#5a7994" opacity="0.784" style="mix-blend-mode:multiply;isolation:isolate"/><path d="M139.158,305.706,379.506,167.077c12.924-7.506,33.974-7.5,46.982.009l116,67c13.006,7.513,13.073,19.7.147,27.215L302.29,399.932c-12.942,7.519-33.973,7.5-46.982-.009l-116-67C126.3,325.408,126.214,313.225,139.158,305.706Z" transform="translate(-89.869 -143.877)" fill="#567692" opacity="0.804" style="mix-blend-mode:multiply;isolation:isolate"/><path d="M139.566,305.277l239.3-138.023c12.872-7.478,33.837-7.474,46.794.006l115.2,66.542c12.957,7.483,13.022,19.626.149,27.1L301.708,398.93c-12.89,7.489-33.837,7.474-46.792-.009l-115.2-66.537C126.758,324.9,126.674,312.766,139.566,305.277Z" transform="translate(-89.35 -143.647)" fill="#52728f" opacity="0.824" style="mix-blend-mode:multiply;isolation:isolate"/><path d="M139.974,304.847,378.225,167.429c12.821-7.448,33.7-7.444,46.6.006l114.4,66.079c12.9,7.452,12.968,19.547.147,26.995L301.126,397.929c-12.838,7.459-33.7,7.444-46.6-.009l-114.4-66.077C127.218,324.391,127.134,312.306,139.974,304.847Z" transform="translate(-88.83 -143.416)" fill="#4e6f8c" opacity="0.843" style="mix-blend-mode:multiply;isolation:isolate"/><path d="M140.382,304.418,377.586,167.6c12.767-7.416,33.561-7.413,46.414.009l113.6,65.616c12.849,7.422,12.916,19.467.147,26.887L300.544,396.93c-12.784,7.426-33.563,7.413-46.411-.009L140.529,331.3C127.678,323.882,127.6,311.847,140.382,304.418Z" transform="translate(-88.311 -143.186)" fill="#4a6b8a" opacity="0.863" style="mix-blend-mode:multiply;isolation:isolate"/><path d="M140.79,303.991,376.946,167.78c12.717-7.387,33.424-7.383,46.223.006l112.8,65.156c12.8,7.392,12.864,19.389.147,26.776L299.962,395.928c-12.732,7.4-33.424,7.383-46.221-.009l-112.8-65.154C128.138,323.373,128.056,311.387,140.79,303.991Z" transform="translate(-87.791 -142.956)" fill="#466887" opacity="0.882" style="mix-blend-mode:multiply;isolation:isolate"/><path d="M141.2,303.562,376.305,167.955c12.665-7.357,33.288-7.353,46.035.007l112,64.693c12.745,7.362,12.81,19.309.145,26.666L299.382,394.927c-12.682,7.368-33.288,7.353-46.033-.009l-112-64.691C128.6,322.866,128.516,310.928,141.2,303.562Z" transform="translate(-87.272 -142.726)" fill="#426584" opacity="0.902" style="mix-blend-mode:multiply;isolation:isolate"/><path d="M141.606,303.132l234.059-135c12.613-7.327,33.152-7.323,45.847.006l111.2,64.23c12.693,7.331,12.756,19.229.145,26.558l-234.059,135c-12.628,7.336-33.152,7.323-45.843-.009L141.75,329.688C129.06,322.357,128.975,310.468,141.606,303.132Z" transform="translate(-86.752 -142.495)" fill="#3d6182" opacity="0.922" style="mix-blend-mode:multiply;isolation:isolate"/><path d="M142.013,302.7l233.012-134.4c12.559-7.295,33.014-7.292,45.655.009l110.4,63.77c12.641,7.3,12.706,19.149.145,26.445l-233.01,134.4c-12.576,7.308-33.014,7.292-45.655-.009l-110.4-63.768C129.519,321.848,129.437,310.009,142.013,302.7Z" transform="translate(-86.232 -142.265)" fill="#395e7f" opacity="0.941" style="mix-blend-mode:multiply;isolation:isolate"/><path d="M142.421,302.274,374.385,168.482c12.507-7.266,32.875-7.262,45.467.007l109.6,63.309c12.587,7.271,12.652,19.069.145,26.335L297.635,391.925c-12.524,7.275-32.875,7.262-45.464-.009l-109.6-63.307C129.979,321.339,129.9,309.549,142.421,302.274Z" transform="translate(-85.713 -142.035)" fill="#355b7c" opacity="0.961" style="mix-blend-mode:multiply;isolation:isolate"/><path d="M142.829,301.845,373.745,168.658c12.455-7.236,32.739-7.232,45.276.006l108.8,62.847c12.535,7.241,12.6,18.989.143,26.225L297.053,390.925c-12.47,7.245-32.739,7.232-45.274-.009l-108.8-62.845C130.439,320.831,130.357,309.089,142.829,301.845Z" transform="translate(-85.193 -141.804)" fill="#31577a" opacity="0.98" style="mix-blend-mode:multiply;isolation:isolate"/><path d="M143.238,301.415,373.1,168.831c12.4-7.2,32.6-7.2,45.088.009l108,62.384c12.483,7.21,12.546,18.909.143,26.117L296.473,389.923c-12.421,7.217-32.6,7.2-45.086-.009l-108-62.382C130.9,320.322,130.817,308.63,143.238,301.415Z" transform="translate(-84.674 -141.574)" fill="#2d5477" style="mix-blend-mode:multiply;isolation:isolate"/></g><g transform="translate(33.67)"><path d="M126.8,260.69,568.943,184.7l-.054,12.494c-.015,5.215-3.442,10.419-10.282,14.394L306.772,356.838c-13.789,8.008-36.192,7.993-50.05-.009L137.19,287.784c-6.975-4.028-10.462-9.318-10.447-14.6Z" transform="translate(-126.743 -95.05)" fill="url(#d)"/><path d="M139.5,323.558l115.364,66.373a49.132,49.132,0,0,0,31.029,5.853c6.043-.863,11.039-2.106,12.165-2.757L558.9,242.432c5.2-3,11.69-10.23,3.738-19.188L440.6,151.816c-9.3-5.6-22.874-9.076-33.64-7.7-4.769.608-10.737,1.779-13.445,3.342L133.856,296.769C122.65,303.24,128.3,317.089,139.5,323.558Z" transform="translate(-125.558 -142.555)" fill="#df6c05"/><path d="M137.216,323.471l119.532,69.041c13.858,8,36.263,8.021,50.05.011L558.633,247.27c13.77-8,13.7-20.989-.158-28.992L438.943,149.235c-13.858-8-36.28-8.006-50.05-.006L137.056,294.481C123.269,302.489,123.358,315.468,137.216,323.471Zm121.917,65.19L136.755,317.976a11.244,11.244,0,0,1,0-19.475L390.968,151.786a44.986,44.986,0,0,1,44.987,0L454.9,162.732a2.44,2.44,0,0,1,.9.912l8.927,15.85a3.536,3.536,0,0,0,1.31,1.325L503.3,202.344a3.32,3.32,0,0,0,1.278.424l23.691,2.77a4.486,4.486,0,0,1,1.717.569l30.823,17.8a9.8,9.8,0,0,1,0,16.972L304.735,388.668A45.6,45.6,0,0,1,259.133,388.662Z" transform="translate(-126.713 -143.231)" fill="#3d3838"/><path d="M291.77,158.932l24.906,14.382c1.373.793,1.522,1.991.333,2.679a5.15,5.15,0,0,1-4.635-.195l-24.906-14.384c-1.373-.791-1.52-1.989-.333-2.677A5.15,5.15,0,0,1,291.77,158.932Z" transform="translate(58.699 -125.75)" fill="#191414"/><g transform="translate(347.384 120.73)"><g transform="translate(34.886)"><path d="M303.871,216.326a7.475,7.475,0,0,1,1.038-1.991,5.915,5.915,0,0,1,1.76-1.641l22.865-13.2a2.2,2.2,0,0,1,2.192-.218l2.266,1.3a2.186,2.186,0,0,0-2.192.216l-22.867,13.2a5.886,5.886,0,0,0-1.76,1.641,7.515,7.515,0,0,0-1.04,1.991,5.563,5.563,0,0,0-.311,1.758v.99a2.19,2.19,0,0,0,.925,2.026l-2.264-1.3a2.194,2.194,0,0,1-.925-2.026v-.99A5.517,5.517,0,0,1,303.871,216.326Z" transform="translate(-303.557 -199.073)" fill="#3d3838"/><path d="M307.715,213.3l22.867-13.2c1.727-.99,3.111-.182,3.109,1.82v.99a6.853,6.853,0,0,1-3.111,5.388l-22.867,13.2c-1.71.982-3.109.162-3.109-1.818v-.99A6.853,6.853,0,0,1,307.715,213.3Z" transform="translate(-302.34 -198.375)" fill="#312d2d"/></g><g transform="translate(0 20.14)"><path d="M287.734,225.642a7.482,7.482,0,0,1,1.04-1.991,5.908,5.908,0,0,1,1.758-1.641l22.867-13.2a2.192,2.192,0,0,1,2.192-.218l2.264,1.3a2.187,2.187,0,0,0-2.192.218l-22.867,13.2a5.912,5.912,0,0,0-1.76,1.641A7.442,7.442,0,0,0,290,226.941a5.5,5.5,0,0,0-.314,1.756v.99a2.2,2.2,0,0,0,.925,2.028l-2.264-1.3a2.194,2.194,0,0,1-.925-2.026v-.99A5.506,5.506,0,0,1,287.734,225.642Z" transform="translate(-287.421 -208.389)" fill="#3d3838"/><path d="M291.579,222.611l22.867-13.2c1.73-.99,3.111-.182,3.109,1.82v.99a6.848,6.848,0,0,1-3.111,5.388l-22.867,13.2c-1.708.982-3.109.162-3.109-1.82V228A6.858,6.858,0,0,1,291.579,222.611Z" transform="translate(-286.204 -207.691)" fill="#312d2d"/></g></g><g transform="translate(378.822 52.041)"><path d="M303.231,171.555a6.7,6.7,0,0,0,6.082,0c1.673-.973,1.667-2.549-.017-3.522a6.706,6.706,0,0,0-6.084,0C301.538,169,301.547,170.582,303.231,171.555Z" transform="translate(-301.962 -167.302)" fill="#191414"/><g transform="translate(1.084 0.627)"><path d="M307.85,170.8a4.955,4.955,0,0,1-4.495-.117c-1.219-.75-1.185-1.918.08-2.605a4.959,4.959,0,0,1,4.5.117C309.152,168.941,309.115,170.109,307.85,170.8Z" transform="translate(-302.463 -167.592)" fill="#cfd5d5" opacity="0.1"/><path d="M306.092,169.682a2.69,2.69,0,0,1-2.443-.063.748.748,0,0,1,.043-1.414,2.7,2.7,0,0,1,2.445.061A.749.749,0,0,1,306.092,169.682Z" transform="translate(-301.648 -167.185)" fill="#cfd5d5" opacity="0.1"/><path d="M304.753,168.878a1,1,0,0,1-.906-.024.277.277,0,0,1,.017-.523.994.994,0,0,1,.9.024A.276.276,0,0,1,304.753,168.878Z" transform="translate(-301.063 -166.846)" fill="#cfd5d5" opacity="0.2" style="mix-blend-mode:screen;isolation:isolate"/></g></g><path d="M126.992,262.726a.109.109,0,0,1,.13.084,14.4,14.4,0,0,0,2.906,5.18,23.281,23.281,0,0,0,5.364,4.7c2.4,1.477,5.3,3.079,8.49,4.934l53.01,30.512c10.968,6.313,22.85,13.151,35.416,20.385l19.337,11.13c3.332,1.868,6.551,3.976,10.1,5.338a50.217,50.217,0,0,0,11.18,2.938,57.916,57.916,0,0,0,23.57-1.317c7.757-1.939,14.518-7,21.8-10.948,14.375-8.319,28.977-16.773,43.581-25.226,58.51-33.638,93.711-53.818,137.593-79.049,21.944-12.609,40.23-23.116,53.031-30.473,3.174-1.881,6.134-3.386,8.419-5.007a22.813,22.813,0,0,0,5.12-4.944,15.581,15.581,0,0,0,2.093-3.909,9.676,9.676,0,0,0,.424-1.483c.071.013.043.538-.2,1.546a13.257,13.257,0,0,1-1.8,4.2,19.828,19.828,0,0,1-5.085,5.347,97.913,97.913,0,0,1-8.453,5.154l-52.932,30.648c-43.811,25.354-78.915,45.7-137.327,79.507-14.63,8.408-29.258,16.818-43.657,25.094-7.271,3.9-14.014,8.972-22.2,11.037a59.427,59.427,0,0,1-24.195,1.282,51.674,51.674,0,0,1-11.5-3.061c-3.716-1.446-6.975-3.6-10.265-5.457q-9.881-5.724-19.3-11.186c-12.544-7.273-24.4-14.146-35.353-20.491-21.9-12.691-40.146-23.267-52.919-30.672-3.169-1.894-6.092-3.4-8.492-5.057A24.143,24.143,0,0,1,129.5,268.4a14.032,14.032,0,0,1-2.166-4.028,11.318,11.318,0,0,1-.424-1.509A.122.122,0,0,1,126.992,262.726Z" transform="translate(-126.549 -94.033)" fill="#4b4444" opacity="0.5"/></g></g><path d="M413.878,134.253,574.31,226.881,284.137,394.413,123.7,301.785Z" transform="translate(-96.604 -111.552)" fill="#e4af71" opacity="0.9" style="mix-blend-mode:screen;isolation:isolate"/><path d="M413.878,123.753,574.31,216.381,284.137,383.913,123.7,291.285Z" transform="translate(-96.604 -123.753)" fill="#dd6b05" opacity="0.9" style="mix-blend-mode:screen;isolation:isolate"/></g><g transform="translate(0 397.56)"><g transform="translate(340.568)"><g style="isolation:isolate"><path d="M159.518,256.712l.009-3.7,10.151-5.917-.007,3.7a.589.589,0,0,1-.245.538l-10.153,5.917A.584.584,0,0,0,159.518,256.712Z" transform="translate(-141.525 -236.108)" fill="#ededed"/><path d="M161.649,242.267a.59.59,0,0,1,.6.058l16.308,9.415L168.4,257.657l-16.308-9.415a.6.6,0,0,0-.6-.061Z" transform="translate(-151.244 -242.21)" fill="#ededed"/><path d="M169.164,246.446a1.854,1.854,0,0,1,.841,1.453l-10.151,5.917a1.853,1.853,0,0,0-.844-1.453Z" transform="translate(-141.853 -236.915)" fill="#ededed"/><path d="M151.393,245.435c0-.533.378-.749.841-.479l16.308,9.415a1.853,1.853,0,0,1,.844,1.453l-.009,3.7c0,.535-.382.747-.848.477l-16.308-9.415a1.841,1.841,0,0,1-.837-1.449Z" transform="translate(-151.384 -238.923)" fill="#ededed"/></g><g transform="translate(4.009 10.809)"><path d="M155.348,248.016c-1.206-.7-2.182-.13-2.182,1.26a4.818,4.818,0,0,0,2.182,3.777c1.2.7,2.18.133,2.18-1.26A4.822,4.822,0,0,0,155.348,248.016Z" transform="translate(-153.166 -246.134)" fill="#ededed"/><path d="M156.512,254.1l2.745-1.586a1.52,1.52,0,0,0,.655-1.419,4.818,4.818,0,0,0-2.182-3.777,1.542,1.542,0,0,0-1.528-.162l-2.745,1.586a1.547,1.547,0,0,1,1.528.16,4.822,4.822,0,0,1,2.18,3.777A1.527,1.527,0,0,1,156.512,254.1Z" transform="translate(-152.802 -247.014)" fill="#ededed"/></g></g><path d="M345.281,248.2l-98.192,56.69a9.743,9.743,0,0,0,0,16.877l70.64,40.783a4.939,4.939,0,0,1,0,8.556l-209.7,121.07a9.739,9.739,0,0,0,0,16.873l75.552,43.621a4.939,4.939,0,0,1,0,8.556L0,667.221v5.545l185.987-107.38a9.741,9.741,0,0,0,0-16.873l-75.554-43.621a4.939,4.939,0,0,1,0-8.556l209.7-121.07a9.739,9.739,0,0,0,0-16.873l-70.641-40.782a4.941,4.941,0,0,1,0-8.558l98.195-56.69C349.283,251.439,346.827,247.313,345.281,248.2Z" transform="translate(0 -234.875)" fill="#ededed"/></g><path d="M180.123,277.4h151.84L264.147,163.738,123.7,244.822Z" transform="translate(158.118 64.167)" fill="#dd6b06" opacity="0.49" style="mix-blend-mode:multiply;isolation:isolate"/><g transform="translate(369.334)"><g transform="translate(0 69.05)"><g transform="translate(6.806 84.919)"><path d="M281.27,317.135,167.33,251.351V129.54l113.94,65.783Z" transform="translate(-167.33 -129.54)" fill="#dd6b06" opacity="0.82"/><path d="M333.972,251.351l-113.94,65.783V195.323l113.94-65.783Z" transform="translate(-106.091 -129.54)" fill="#d26305"/></g><path d="M284.929,229.688,164.182,159.975,284.929,90.261l120.747,69.713Z" transform="translate(-164.182 -90.261)" fill="#fffcf8"/><path d="M284.929,218.1,164.182,148.39V122.506l120.747,69.713Z" transform="translate(-164.182 -52.793)" fill="#cecabe"/><path d="M340.778,148.39,220.032,218.1V192.219l120.747-69.713Z" transform="translate(-99.285 -52.793)" fill="#e9e5de"/></g><g transform="translate(69.47)"><g transform="translate(0 106.962)"><path d="M302.526,114.338,207.644,169.12l-11.329-6.541L291.2,107.8Z" transform="translate(-196.314 -107.797)" fill="#c9c5ba"/><path d="M240.225,107.8l-.045,13.108,11.374-6.567Z" transform="translate(-145.342 -107.797)" fill="#c9c5ba" opacity="0.6" style="mix-blend-mode:multiply;isolation:isolate"/></g><g transform="translate(14.051)"><path d="M290.492,159.664l-87.679,50.621V121.612l87.679-50.622Z" transform="translate(-202.813 -43.604)" fill="#e9e5de"/><g clip-path="url(#e)"><g transform="translate(10.472 52.704)"><path d="M247.285,82.8l-14.991,8.654a1.285,1.285,0,0,0-.62.977v14.991c0,.344.277.46.62.262l14.991-8.654a1.284,1.284,0,0,0,.618-.977V83.058C247.9,82.716,247.626,82.6,247.285,82.8Zm-.534,14.74a1.332,1.332,0,0,1-.644,1.016l-12.637,7.3c-.355.205-.644.084-.644-.272V92.94a1.338,1.338,0,0,1,.644-1.016l12.637-7.3c.357-.205.644-.082.644.272Z" transform="translate(-179.751 -82.701)" fill="#b4b4b4"/><path d="M247.285,96.76l-14.991,8.654a1.285,1.285,0,0,0-.62.977v14.993c0,.342.277.458.62.262l14.991-8.657a1.284,1.284,0,0,0,.618-.977V97.022C247.9,96.68,247.626,96.564,247.285,96.76Zm-.534,14.743a1.336,1.336,0,0,1-.644,1.016l-12.637,7.295c-.355.205-.644.084-.644-.272V106.9a1.341,1.341,0,0,1,.644-1.016l12.637-7.3c.357-.205.644-.082.644.272Z" transform="translate(-179.751 -66.475)" fill="#b4b4b4"/><path d="M247.285,110.724l-14.991,8.657a1.278,1.278,0,0,0-.62.975v14.993c0,.342.277.458.62.262l14.991-8.657a1.281,1.281,0,0,0,.618-.975V110.986C247.9,110.644,247.626,110.528,247.285,110.724Zm-.534,14.743a1.336,1.336,0,0,1-.644,1.016l-12.637,7.295c-.355.205-.644.084-.644-.27V120.868a1.341,1.341,0,0,1,.644-1.016l12.637-7.3c.357-.2.644-.082.644.272Z" transform="translate(-179.751 -50.249)" fill="#b4b4b4"/><path d="M247.285,124.688l-14.991,8.657a1.278,1.278,0,0,0-.62.977v14.991c0,.342.277.458.62.262l14.991-8.657a1.281,1.281,0,0,0,.618-.975V124.95C247.9,124.608,247.626,124.492,247.285,124.688Zm-.534,14.743a1.336,1.336,0,0,1-.644,1.016l-12.637,7.3c-.355.205-.644.082-.644-.272V134.832a1.341,1.341,0,0,1,.644-1.016l12.637-7.295c.357-.205.644-.084.644.272Z" transform="translate(-179.751 -34.023)" fill="#b4b4b4"/><path d="M247.285,138.652l-14.991,8.657a1.282,1.282,0,0,0-.62.977v14.991c0,.342.277.458.62.262l14.991-8.654a1.288,1.288,0,0,0,.618-.977V138.916C247.9,138.572,247.626,138.456,247.285,138.652Zm-.534,14.743a1.336,1.336,0,0,1-.644,1.016l-12.637,7.3c-.355.205-.644.082-.644-.272V148.8a1.334,1.334,0,0,1,.644-1.016l12.637-7.3c.357-.205.644-.084.644.272Z" transform="translate(-179.751 -17.797)" fill="#b4b4b4"/><g transform="translate(0 14.823)"><path d="M216.773,101.005l6.926-4v1.652l-6.926,4Z" transform="translate(-197.064 -80.9)" fill="#b4b4b4"/><path d="M221.9,103.365v-1.653l-5.408,3.122-3.558,2.054v1.653l3.558-2.055Z" transform="translate(-201.527 -75.432)" fill="#b4b4b4"/><path d="M216.525,104.785l-8.868,5.12v1.653l8.868-5.12Z" transform="translate(-207.657 -71.863)" fill="#b4b4b4"/><path d="M221.077,103.335l3.722-2.149V99.534l-6.411,3.7-10.7,6.18v1.653l13.394-7.733Z" transform="translate(-207.627 -77.964)" fill="#b4b4b4"/><path d="M210.537,104.661l8.728-5.039V97.969l-8.728,5.039-2.825,1.631v1.652l2.825-1.631Z" transform="translate(-207.593 -79.782)" fill="#b4b4b4"/><path d="M220.39,98.169l2.805-1.62V94.9l-3.705,2.139-5.261,3.037v1.652l6.161-3.556Z" transform="translate(-200.019 -83.352)" fill="#b4b4b4"/><path d="M229.713,89.557,225.831,91.8V93.45l3.882-2.241Z" transform="translate(-186.539 -89.557)" fill="#b4b4b4"/><path d="M226.454,91.271l-3.343,1.93v1.652l3.343-1.93Z" transform="translate(-189.699 -87.565)" fill="#b4b4b4"/><path d="M231.083,92.573l-6.375,3.681v1.653l6.375-3.681Z" transform="translate(-187.845 -86.052)" fill="#b4b4b4"/><path d="M224.7,98.159l-2.723,1.572v1.652l2.723-1.572Z" transform="translate(-191.019 -79.562)" fill="#b4b4b4"/><path d="M224.409,99.677v1.652l7.077-4.085V95.591Z" transform="translate(-188.192 -82.545)" fill="#b4b4b4"/></g><g transform="translate(0.027 44.802)"><path d="M220.812,117.526l-13.139,7.586v1.652l13.139-7.585Z" transform="translate(-207.665 -87.037)" fill="#b4b4b4"/><path d="M228.534,107.85l-9.518,5.5-6.356,3.67v1.653l6.356-3.67,9.518-5.495Z" transform="translate(-201.872 -98.28)" fill="#b4b4b4"/><path d="M215.531,118.61l-7.854,4.534V124.8l7.854-4.534,8.728-5.039v-1.652l-8.728,5.039Z" transform="translate(-207.661 -91.632)" fill="#b4b4b4"/><path d="M216.521,114.323v1.653l4.609-2.661v-1.652Z" transform="translate(-197.385 -93.849)" fill="#b4b4b4"/><path d="M214.925,121.075l8.3-4.791v-1.652l-8.3,4.79Z" transform="translate(-199.239 -90.399)" fill="#b4b4b4"/><path d="M207.67,119.183l8.25-4.763v-1.653l-8.25,4.763Z" transform="translate(-207.67 -92.566)" fill="#b4b4b4"/><path d="M233.764,109.492l-11.347,6.551V117.7l11.347-6.551Z" transform="translate(-190.534 -96.371)" fill="#b4b4b4"/><path d="M223.54,113.258l8.91-5.144v-1.652l-8.91,5.144Z" transform="translate(-189.228 -99.894)" fill="#b4b4b4"/><path d="M224.682,108.805l6.458-3.729v-1.653l-6.458,3.729Z" transform="translate(-187.902 -103.423)" fill="#b4b4b4"/></g><g transform="translate(0.1 75.211)"><path d="M223.247,125.619l-8.3,4.791v1.652l8.3-4.79Z" transform="translate(-199.283 -108.042)" fill="#b4b4b4"/><path d="M223.675,128.372l-8.194,4.731v1.652l8.194-4.731Z" transform="translate(-198.665 -104.842)" fill="#b4b4b4"/><path d="M207.724,134.87l3.464-2,10.212-5.9v-1.652l-9.38,5.416-4.3,2.48Z" transform="translate(-207.68 -108.388)" fill="#b4b4b4"/><path d="M221.982,131.238l-10.534,6.082-3.745,2.162v1.652l5.035-2.907,9.244-5.337Z" transform="translate(-207.703 -101.512)" fill="#b4b4b4"/><path d="M207.711,137.736l6.154-3.553,6.96-4.018v-1.652l-10.037,5.8-3.077,1.777Z" transform="translate(-207.695 -104.68)" fill="#b4b4b4"/><path d="M224.189,122.249,221.152,124l-.668.386-5.26,3.037v1.653l5.26-3.037.668-.386,3.037-1.753Z" transform="translate(-198.966 -111.957)" fill="#b4b4b4"/><path d="M222.118,123.352l3.342-1.93V119.77l-3.342,1.929Z" transform="translate(-190.954 -114.838)" fill="#b4b4b4"/><path d="M224.838,122.608l6-3.466v-1.653l-6,3.467Z" transform="translate(-187.793 -117.489)" fill="#b4b4b4"/><path d="M224.517,129.089l6.743-3.893v-1.652l-6.743,3.893Z" transform="translate(-188.166 -110.453)" fill="#b4b4b4"/><path d="M223.992,126.706l7.862-4.539v-1.652l-7.862,4.539Z" transform="translate(-188.777 -113.973)" fill="#b4b4b4"/><path d="M224.53,123.292l-3.186,1.839v1.652l3.186-1.839Z" transform="translate(-191.853 -110.746)" fill="#b4b4b4"/><path d="M225.067,126.022l-3.207,1.852v1.652l3.207-1.851Z" transform="translate(-191.254 -107.574)" fill="#b4b4b4"/></g><g transform="translate(0 104.996)"><path d="M219.49,138.745l-5.261,3.037v1.652l6.161-3.556,2.805-1.62v-1.653l-3.705,2.139Z" transform="translate(-200.019 -125.06)" fill="#b4b4b4"/><path d="M219.266,139.678l-8.728,5.039-2.825,1.631V148l2.825-1.631,8.728-5.039Z" transform="translate(-207.593 -121.49)" fill="#b4b4b4"/><path d="M215.849,143.632l-8.167,4.715V150l8.167-4.715Z" transform="translate(-207.627 -116.895)" fill="#b4b4b4"/><path d="M221.583,142.713l-8.949,5.167v1.653l9.611-5.549,6.264-3.616v-1.652l-6.926,4Z" transform="translate(-201.874 -122.608)" fill="#b4b4b4"/><path d="M221.9,145.074v-1.653l-3.705,2.14-5.26,3.037v1.653l5.26-3.037Z" transform="translate(-201.527 -117.14)" fill="#b4b4b4"/><path d="M216.525,146.493l-8.868,5.12v1.653l8.868-5.12Z" transform="translate(-207.657 -113.571)" fill="#b4b4b4"/><path d="M224.409,143.038l7.077-4.085V137.3l-7.077,4.086Z" transform="translate(-188.192 -124.253)" fill="#b4b4b4"/><path d="M224.7,139.867l-2.723,1.572v1.652l2.723-1.572Z" transform="translate(-191.019 -121.27)" fill="#b4b4b4"/><path d="M226.454,132.979l-3.343,1.93v1.652l3.343-1.93Z" transform="translate(-189.699 -129.273)" fill="#b4b4b4"/><path d="M231.083,134.281l-6.375,3.681v1.653l6.375-3.681Z" transform="translate(-187.845 -127.761)" fill="#b4b4b4"/><path d="M229.713,132.918v-1.652l-3.882,2.241v1.652Z" transform="translate(-186.539 -131.265)" fill="#b4b4b4"/></g><g transform="translate(0.036 135.526)"><path d="M222.037,154.451l-6.814,3.934v1.653l5.26-3.037,3.705-2.139v-1.653l-2.152,1.242Z" transform="translate(-198.902 -136.297)" fill="#b4b4b4"/><path d="M217.167,161.124v-1.652l-6.308,3.642v1.652Z" transform="translate(-203.973 -129.02)" fill="#b4b4b4"/><path d="M224.6,156.246l7.044-4.067v-1.652l-8.3,4.79-15.676,9.051v1.652l16.93-9.774Z" transform="translate(-207.674 -139.414)" fill="#b4b4b4"/><path d="M210.134,160.941v-1.652l-2.411,1.392v1.653Z" transform="translate(-207.616 -129.232)" fill="#b4b4b4"/><path d="M218.74,156.281l-8.728,5.039v1.652l8.728-5.039Z" transform="translate(-204.956 -132.728)" fill="#b4b4b4"/><path d="M223.247,156.578l-8.3,4.791v1.652l8.3-4.791Z" transform="translate(-199.219 -132.382)" fill="#b4b4b4"/><path d="M207.711,165.95l4.268-2.464v-1.652l-4.268,2.464Z" transform="translate(-207.631 -126.275)" fill="#b4b4b4"/><path d="M224.53,154.251l-3.186,1.839v1.652l3.186-1.839Z" transform="translate(-191.789 -135.086)" fill="#b4b4b4"/><path d="M222.417,153.59l11.347-6.551v-1.652l-11.347,6.551Z" transform="translate(-190.543 -145.387)" fill="#b4b4b4"/><path d="M224.838,151.915v1.652l6-3.466v-1.653Z" transform="translate(-187.729 -141.829)" fill="#b4b4b4"/><path d="M222.118,154.311l3.342-1.93V150.73l-3.342,1.93Z" transform="translate(-190.89 -139.178)" fill="#b4b4b4"/><path d="M223.992,157.666l7.862-4.539v-1.652l-7.862,4.539Z" transform="translate(-188.713 -138.313)" fill="#b4b4b4"/></g><path d="M251.4,92.485c-2.151,4.231-4.16,8.469-6.173,12.706-1.606,3.524-3.252,7.046-4.828,10.572a101.324,101.324,0,0,0-7.963-6.633c-.2-.145-.558-.019-.847.311-.318.363-.432.83-.255,1.046a108.822,108.822,0,0,0,8.116,8.7.563.563,0,0,0,.357.151,2.1,2.1,0,0,0,1.656-1.314c2.011-4.279,3.827-8.525,5.729-12.764,1.823-4.244,3.649-8.488,5.331-12.738.147-.37.067-.681-.2-.72C252.026,91.761,251.613,92.066,251.4,92.485Z" transform="translate(-180.242 -72.13)" fill="#539933"/></g></g></g></g><g transform="translate(133.772 192.624)"><g transform="translate(8.719 15.039)"><path d="M230.089,191.174V176.425a.906.906,0,0,1,.517-.813l5.889-3.4q1.939-1.119,2.994-.7t1.055,2.335v1.007a5.075,5.075,0,0,1-1.937,3.818,1.822,1.822,0,0,1,1.57-.108c.393.205.588.711.588,1.511v1.474a6.452,6.452,0,0,1-1.053,3.554,8.507,8.507,0,0,1-2.971,2.744l-6.136,3.543C230.262,191.591,230.089,191.518,230.089,191.174Zm3.386-10.814,2.506-1.446a3.43,3.43,0,0,0,1.152-1,2.284,2.284,0,0,0,.37-1.306v-.958c0-.506-.121-.8-.357-.886s-.618.026-1.142.329l-2.53,1.459a.474.474,0,0,0-.268.426v3.265C233.207,180.425,233.3,180.464,233.475,180.36Zm0,6.773,2.75-1.587a3.393,3.393,0,0,0,1.165-1.005,2.285,2.285,0,0,0,.357-1.3v-1.425c0-.506-.123-.8-.37-.865a1.814,1.814,0,0,0-1.2.374l-2.7,1.559a.475.475,0,0,0-.268.426v3.706C233.207,187.2,233.3,187.237,233.475,187.133Z" transform="translate(-230.089 -134.595)" fill="#fffcf8"/><path d="M238.594,186.9l-2.357,1.36c-.294.171-.391.054-.294-.346l3.879-16.989a1.537,1.537,0,0,1,.735-.94l3.265-1.883q.613-.357.737.089l3.879,12.511a.532.532,0,0,1-.3.685l-2.357,1.362c-.179.1-.3.136-.367.1s-.112-.143-.147-.32l-.688-2.3-4.784,2.763-.688,3.1a1.317,1.317,0,0,1-.16.5A1,1,0,0,1,238.594,186.9Zm3.561-14.868-1.768,8.114,3.634-2.1-1.769-6.073Z" transform="translate(-223.328 -138.614)" fill="#fffcf8"/><path d="M251.3,177.882l-8.075,4.663c-.344.2-.515.125-.515-.218V167.576a.906.906,0,0,1,.515-.813l2.086-1.2c.344-.2.515-.128.515.216v12.271c0,.182.1.214.3.1l5.178-2.99q.49-.282.491.257v1.669A.88.88,0,0,1,251.3,177.882Z" transform="translate(-215.42 -141.505)" fill="#fffcf8"/><path d="M256.4,174.941l-8.075,4.661q-.516.3-.515-.218V164.635a.906.906,0,0,1,.515-.813l2.086-1.2c.342-.2.515-.125.515.218v12.271c0,.179.1.212.3.1l5.178-2.992c.326-.186.491-.1.491.259v1.669A.882.882,0,0,1,256.4,174.941Z" transform="translate(-209.497 -144.924)" fill="#fffcf8"/><path d="M259.592,174.779l-2.75,1.587q-1.939,1.122-2.994.7t-1.055-2.361v-7.779a6.5,6.5,0,0,1,1.055-3.58,8.557,8.557,0,0,1,2.994-2.759l2.75-1.587q1.936-1.119,2.994-.7t1.053,2.361v7.779a6.494,6.494,0,0,1-1.053,3.58A8.593,8.593,0,0,1,259.592,174.779Zm-2.259-1.395,1.743-1.007a3.159,3.159,0,0,0,1.118-.977,2.409,2.409,0,0,0,.331-1.306v-7.487c0-.523-.112-.83-.331-.925s-.595.011-1.118.314L257.333,163a3.057,3.057,0,0,0-1.1.969,2.439,2.439,0,0,0-.32,1.3v7.485c0,.523.108.835.32.932S256.81,173.685,257.333,173.384Z" transform="translate(-203.707 -149.948)" fill="#fffcf8"/><path d="M264.756,172.348l-2.062,1.189c-.359.208-.538.141-.538-.2v-12.3c0-.179-.093-.216-.272-.112l-2.8,1.615c-.346.2-.517.128-.517-.216v-1.669a.91.91,0,0,1,.517-.815l9.275-5.355c.344-.2.517-.125.517.218v1.669a.908.908,0,0,1-.517.813l-2.8,1.615a.5.5,0,0,0-.3.439v12.3A.906.906,0,0,1,264.756,172.348Z" transform="translate(-196.993 -154.375)" fill="#fffcf8"/><g transform="translate(0.091 41.102)"><path d="M230.131,201.192V186.443a.906.906,0,0,1,.515-.813l5.891-3.4q1.939-1.119,2.994-.7t1.053,2.335v1.008a5.065,5.065,0,0,1-1.937,3.818,1.822,1.822,0,0,1,1.57-.108c.393.205.59.711.59,1.513v1.47a6.455,6.455,0,0,1-1.055,3.556,8.493,8.493,0,0,1-2.971,2.746l-6.136,3.541Q230.13,201.709,230.131,201.192Zm3.386-10.814,2.5-1.446a3.418,3.418,0,0,0,1.154-1,2.279,2.279,0,0,0,.368-1.306v-.956c0-.508-.119-.8-.355-.889s-.618.026-1.142.329l-2.53,1.459a.478.478,0,0,0-.27.428v3.262C233.246,190.445,233.337,190.482,233.517,190.378Zm0,6.774,2.75-1.589a3.387,3.387,0,0,0,1.165-1,2.3,2.3,0,0,0,.357-1.3v-1.425c0-.506-.123-.793-.37-.867a1.838,1.838,0,0,0-1.2.378l-2.7,1.559a.474.474,0,0,0-.27.424v3.706C233.246,197.218,233.337,197.255,233.517,197.151Z" transform="translate(-230.131 -164.056)" fill="#fffcf8"/><path d="M243.117,194.333l-2.75,1.589q-1.939,1.119-2.994.7t-1.055-2.361v-7.779a6.5,6.5,0,0,1,1.055-3.58,8.556,8.556,0,0,1,2.994-2.759l2.75-1.587q1.939-1.119,2.994-.7t1.053,2.361v7.779a6.494,6.494,0,0,1-1.053,3.58A8.555,8.555,0,0,1,243.117,194.333Zm-2.259-1.4,1.743-1.005a3.14,3.14,0,0,0,1.118-.977,2.392,2.392,0,0,0,.331-1.308v-7.487c0-.521-.11-.828-.331-.923s-.592.011-1.118.311l-1.743,1.008a3.1,3.1,0,0,0-1.1.969,2.449,2.449,0,0,0-.32,1.3v7.487c0,.525.108.835.32.932S240.335,193.239,240.858,192.936Z" transform="translate(-222.942 -168.329)" fill="#fffcf8"/><path d="M245.045,194.318l-2.43,1.4q-.246.143-.344.039c-.067-.069-.067-.2,0-.38l3.805-9.733-3.682-5.04a.357.357,0,0,1,0-.368.778.778,0,0,1,.344-.372l2.354-1.358c.409-.238.679-.22.811.045l2.331,3.933.1-.056,2.309-6.609a1.787,1.787,0,0,1,.787-.971l2.4-1.388c.164-.1.281-.1.355-.022s.078.205.013.372l-3.732,9.3,3.805,5.314a.368.368,0,0,1,.024.391.831.831,0,0,1-.368.372l-2.454,1.418c-.344.2-.582.171-.711-.082l-2.432-3.9-.1.056L245.78,193.4A1.654,1.654,0,0,1,245.045,194.318Z" transform="translate(-216.083 -173.386)" fill="#fffcf8"/></g></g><path d="M226.056,198.99v40.26l1.705-.985-.018-38.563,85.95-49.623v36.886l-33.916,19.581v1.687l35.6-20.555v-40.26Z" transform="translate(-226.056 -147.419)" fill="#fffcf8"/></g></g><g transform="translate(487.827 383.634)"><path d="M222.933,330.356l38.652,22.316c5.208,3.005,13.625,3.025,18.831,0l126.455-73.155c5.206-3.025,5.146-7.9-.063-10.907l-38.652-22.316c-5.206-3.005-13.625-3.025-18.831,0L222.872,319.448C217.666,322.473,217.727,327.348,222.933,330.356Z" transform="translate(-218.979 -226.165)" fill="#2d5477" opacity="0.5" style="mix-blend-mode:multiply;isolation:isolate"/><g transform="translate(0 0)"><path d="M219.008,300.434l-.019,6.393c0,1.989,1.312,3.978,3.937,5.494l38.652,22.316c5.206,3.007,13.625,3.027,18.831,0l126.452-73.153c2.584-1.5,3.87-3.457,3.876-5.414l.017-6.393c-.007,1.959-1.293,3.913-3.874,5.414L280.426,328.244c-5.206,3.027-13.623,3.007-18.831,0l-38.652-22.316C220.319,304.414,219,302.423,219.008,300.434Z" transform="translate(-218.989 -219.606)" fill="#f5f2ee"/><path d="M222.933,322.09l38.652,22.316c5.208,3.007,13.625,3.027,18.831,0l126.455-73.153c5.206-3.025,5.146-7.9-.063-10.907l-38.652-22.316c-5.206-3.005-13.623-3.025-18.831,0L222.872,311.182C217.666,314.209,217.727,319.084,222.933,322.09Z" transform="translate(-218.979 -235.768)" fill="#df721a"/></g><path d="M278.211,305.079l-5.7,3.293a2.216,2.216,0,0,1-2,.1L237.7,297.314c-.871-.266-.912-.625-.13-1.077l4.088-2.363a2.162,2.162,0,0,1,1.959-.076l25.983,9.722.175-.1-16.844-15c-.491-.419-.45-.8.132-1.131l4.09-2.361a1.466,1.466,0,0,1,1.87.073l19.322,18.946C278.805,304.383,278.764,304.76,278.211,305.079Zm25.066-14.472-4.875,2.815a14.3,14.3,0,0,1-7.137,2.011,13.89,13.89,0,0,1-7.137-1.961l-13.793-7.965q-3.437-1.982-3.4-4.119t3.483-4.121l4.875-2.815a14.3,14.3,0,0,1,7.137-2.011,13.9,13.9,0,0,1,7.135,1.961l13.793,7.965q3.438,1.985,3.4,4.119T303.277,290.607Zm-8.793-.452,3.092-1.784q1.391-.8,1.392-1.483c0-.45-.461-.945-1.392-1.483L284.3,277.743a4.5,4.5,0,0,0-5.137,0l-3.092,1.784c-.928.536-1.379,1.027-1.369,1.47s.484.934,1.412,1.47l13.272,7.664a5.3,5.3,0,0,0,2.547.815A5.054,5.054,0,0,0,294.484,290.155Zm32.032-12.965-3.656,2.11a1.756,1.756,0,0,1-1.868.026l-21.8-12.587a.913.913,0,0,0-.964,0l-4.957,2.863a1.723,1.723,0,0,1-1.831,0L288.48,267.9c-.607-.352-.607-.7,0-1.057l16.446-9.5a1.711,1.711,0,0,1,1.827,0l2.958,1.708q.915.525,0,1.055l-4.957,2.863c-.35.2-.361.4-.043.579l21.8,12.587Q327.43,276.663,326.516,277.19Zm27.937-16.131-14.228,8.216a1.714,1.714,0,0,1-1.829,0l-26.151-15.1q-.914-.529,0-1.055l14.228-8.216a1.68,1.68,0,0,1,1.786.024l2.958,1.708q.911.529.041,1.031l-9.093,5.249c-.35.2-.361.4-.043.582l5.656,3.265a.937.937,0,0,0,1-.026l7.44-4.3a1.71,1.71,0,0,1,1.827,0l2.962,1.71q.911.525,0,1.055l-7.442,4.3q-.525.3-.045.577l6.049,3.494a.938.938,0,0,0,1-.028l9.1-5.249a1.672,1.672,0,0,1,1.784.024l2.962,1.71Q355.323,260.555,354.453,261.059Z" transform="translate(-198.048 -225.436)" fill="#fffcf8"/></g></g></g></g></svg>