<svg xmlns="http://www.w3.org/2000/svg" xmlns:xlink="http://www.w3.org/1999/xlink" width="55.052" height="41.814" viewBox="0 0 55.052 41.814"><defs><filter id="a" x="0" y="0" width="40.954" height="40.01" filterUnits="userSpaceOnUse"><feOffset dy="3" input="SourceAlpha"/><feGaussianBlur stdDeviation="2.5" result="b"/><feFlood flood-opacity="0.169"/><feComposite operator="in" in2="b"/><feComposite in="SourceGraphic"/></filter><filter id="c" x="13.35" y="0.007" width="41.702" height="41.808" filterUnits="userSpaceOnUse"><feOffset dy="3" input="SourceAlpha"/><feGaussianBlur stdDeviation="2.5" result="d"/><feFlood flood-opacity="0.169"/><feComposite operator="in" in2="d"/><feComposite in="SourceGraphic"/></filter><filter id="e" x="26.013" y="15.907" width="28.101" height="24.64" filterUnits="userSpaceOnUse"><feOffset dy="3" input="SourceAlpha"/><feGaussianBlur stdDeviation="2.5" result="f"/><feFlood flood-opacity="0.169"/><feComposite operator="in" in2="f"/><feComposite in="SourceGraphic"/></filter></defs><g transform="translate(7.5 4.5)"><g transform="matrix(1, 0, 0, 1, -7.5, -4.5)" filter="url(#a)"><path d="M19.33,23.177V21.59a8.676,8.676,0,0,0,3.708-7.149c0-4.781,0-8.657-5.562-8.657s-5.562,3.876-5.562,8.657a8.676,8.676,0,0,0,3.708,7.149v1.587C9.333,23.71,4.5,26.917,4.5,30.794H30.453c0-3.877-4.835-7.083-11.123-7.617Z" transform="translate(3 -1.28)" fill="#fefcfc"/></g><g transform="translate(13.35 0.007)"><g transform="matrix(1, 0, 0, 1, -20.85, -4.51)" filter="url(#c)"><path d="M12.584,21.2a9.229,9.229,0,0,1,6-8.644,7.675,7.675,0,0,0,.677-3.084c0-4.164,0-7.54-5.007-7.54S9.246,5.3,9.246,9.468a7.491,7.491,0,0,0,3.338,6.226v1.382c-5.661.465-10.013,3.257-10.013,6.634h10.36a9.227,9.227,0,0,1-.347-2.513Zm9.179-7.54a7.54,7.54,0,1,0,7.51,7.54,7.525,7.525,0,0,0-7.51-7.54Zm4.172,8.377H22.6v3.351l2.375-2.112-4.044-1.239h0l2.19,5.092,5.431-4.408L22.6,17.007v3.351h3.338Z" transform="translate(18.28 2.58)" fill="#fefcfc"/></g><g transform="matrix(1, 0, 0, 1, -20.85, -4.51)" filter="url(#e)"><path d="M2585.916,586.747l4.56,3.566,6.554-6.58" transform="translate(-2551.48 -562.27)" fill="none" stroke="#db6b03" stroke-width="3"/></g></g></g></svg>