<svg xmlns="http://www.w3.org/2000/svg" xmlns:xlink="http://www.w3.org/1999/xlink" width="56.532" height="43.74" viewBox="0 0 56.532 43.74"><defs><filter id="a" x="0" y="0" width="39.539" height="38.646" filterUnits="userSpaceOnUse"><feOffset dy="3" input="SourceAlpha"/><feGaussianBlur stdDeviation="2.5" result="b"/><feFlood flood-opacity="0.169"/><feComposite operator="in" in2="b"/><feComposite in="SourceGraphic"/></filter><filter id="c" x="13.843" y="0.007" width="42.688" height="43.733" filterUnits="userSpaceOnUse"><feOffset dy="3" input="SourceAlpha"/><feGaussianBlur stdDeviation="2.5" result="d"/><feFlood flood-opacity="0.169"/><feComposite operator="in" in2="d"/><feComposite in="SourceGraphic"/></filter></defs><g transform="translate(7.5 4.5)"><g transform="matrix(1, 0, 0, 1, -7.5, -4.5)" filter="url(#a)"><path d="M18.521,22.228v-1.5a8.2,8.2,0,0,0,3.506-6.759c0-4.52,0-8.185-5.258-8.185S11.51,9.449,11.51,13.969a8.2,8.2,0,0,0,3.506,6.759v1.5C9.07,22.733,4.5,25.764,4.5,29.43H29.038c0-3.665-4.571-6.7-10.517-7.2Z" transform="translate(3 -1.28)" fill="#fefcfc"/></g><g transform="matrix(1, 0, 0, 1, -7.5, -4.5)" filter="url(#c)"><path d="M12.954,22.58a9.883,9.883,0,0,1,6.22-9.265,8.46,8.46,0,0,0,.7-3.305c0-4.463,0-8.081-5.192-8.081S9.493,5.546,9.493,10.009a8.1,8.1,0,0,0,3.461,6.673v1.481c-5.87.5-10.383,3.491-10.383,7.11H13.314a10.2,10.2,0,0,1-.36-2.694ZM22.472,14.5a7.938,7.938,0,0,0-7.787,8.081,7.938,7.938,0,0,0,7.787,8.081,7.938,7.938,0,0,0,7.787-8.081,8.551,8.551,0,0,0-1.535-4.818A7.525,7.525,0,0,0,22.472,14.5ZM26.8,23.478H23.337v3.592L25.8,24.805l-4.193-1.327h0l2.271,5.457,5.632-4.725-6.172-6.12v3.592H26.8Z" transform="translate(18.77 2.58)" fill="#fefcfc"/></g><g transform="translate(29.898 15.533)"><path d="M0,0,3.119,4.753l2.426,3.7" transform="matrix(0.966, -0.259, 0.259, 0.966, 0, 1.506)" fill="#fff" stroke="#db6b03" stroke-linecap="round" stroke-width="1"/><path d="M0,0,4.753,3.119l3.7,2.426" transform="matrix(-0.259, 0.966, -0.966, -0.259, 8.275, 1.944)" fill="#fff" stroke="#db6b03" stroke-linecap="round" stroke-width="1"/></g></g></svg>