<svg xmlns="http://www.w3.org/2000/svg" xmlns:xlink="http://www.w3.org/1999/xlink" width="44.873" height="46" viewBox="0 0 44.873 46"><defs><filter id="a" x="0" y="0" width="44.873" height="46" filterUnits="userSpaceOnUse"><feOffset dy="3" input="SourceAlpha"/><feGaussianBlur stdDeviation="2.5" result="b"/><feFlood flood-opacity="0.169"/><feComposite operator="in" in2="b"/><feComposite in="SourceGraphic"/></filter></defs><g transform="translate(7.5 4.5)"><g transform="matrix(1, 0, 0, 1, -7.5, -4.5)" filter="url(#a)"><path d="M13.773,24.209a10.663,10.663,0,0,1,6.711-10,9.127,9.127,0,0,0,.758-3.566c0-4.815,0-8.719-5.6-8.719s-5.6,3.9-5.6,8.719a8.737,8.737,0,0,0,3.734,7.2v1.6c-6.334.537-11.2,3.767-11.2,7.671H14.161a11.006,11.006,0,0,1-.388-2.906Zm10.269-8.719a8.565,8.565,0,0,0-8.4,8.719,8.565,8.565,0,0,0,8.4,8.719,8.565,8.565,0,0,0,8.4-8.719,8.565,8.565,0,0,0-8.4-8.719Zm4.668,9.687H24.976v3.875l2.657-2.443-4.524-1.432h0l2.45,5.888,6.077-5.1-6.659-6.6v3.875H28.71Z" transform="translate(4.93 2.57)" fill="#fefcfc"/></g><path d="M2585.916,587.218l5.1,4.124,7.333-7.609" transform="translate(-2570.715 -564.122)" fill="none" stroke="#db6b03" stroke-linecap="round" stroke-linejoin="round" stroke-width="3"/></g></svg>