<svg xmlns="http://www.w3.org/2000/svg" xmlns:xlink="http://www.w3.org/1999/xlink" width="46.826" height="47.967" viewBox="0 0 46.826 47.967"><defs><filter id="a" x="20.384" y="0" width="22.447" height="22.728" filterUnits="userSpaceOnUse"><feOffset dy="3" input="SourceAlpha"/><feGaussianBlur stdDeviation="2.5" result="b"/><feFlood flood-opacity="0.169"/><feComposite operator="in" in2="b"/><feComposite in="SourceGraphic"/></filter><filter id="c" x="18.887" y="8.652" width="27.938" height="39.314" filterUnits="userSpaceOnUse"><feOffset dy="3" input="SourceAlpha"/><feGaussianBlur stdDeviation="2.5" result="d"/><feFlood flood-opacity="0.169"/><feComposite operator="in" in2="d"/><feComposite in="SourceGraphic"/></filter><filter id="e" x="3.965" y="0" width="22.447" height="22.728" filterUnits="userSpaceOnUse"><feOffset dy="3" input="SourceAlpha"/><feGaussianBlur stdDeviation="2.5" result="f"/><feFlood flood-opacity="0.169"/><feComposite operator="in" in2="f"/><feComposite in="SourceGraphic"/></filter><filter id="g" x="0" y="8.651" width="27.735" height="39.315" filterUnits="userSpaceOnUse"><feOffset dy="3" input="SourceAlpha"/><feGaussianBlur stdDeviation="2.5" result="h"/><feFlood flood-opacity="0.169"/><feComposite operator="in" in2="h"/><feComposite in="SourceGraphic"/></filter><filter id="i" x="11.95" y="2.098" width="22.447" height="22.728" filterUnits="userSpaceOnUse"><feOffset dy="3" input="SourceAlpha"/><feGaussianBlur stdDeviation="2.5" result="j"/><feFlood flood-opacity="0.169"/><feComposite operator="in" in2="j"/><feComposite in="SourceGraphic"/></filter><filter id="k" x="8.45" y="11.232" width="29.476" height="36.735" filterUnits="userSpaceOnUse"><feOffset dy="3" input="SourceAlpha"/><feGaussianBlur stdDeviation="2.5" result="l"/><feFlood flood-opacity="0.169"/><feComposite operator="in" in2="l"/><feComposite in="SourceGraphic"/></filter></defs><g transform="translate(7.5 4.5)"><g transform="matrix(1, 0, 0, 1, -7.5, -4.5)" filter="url(#a)"><ellipse cx="3.724" cy="3.864" rx="3.724" ry="3.864" transform="translate(27.88 4.5)" fill="#fefcfc"/></g><g transform="matrix(1, 0, 0, 1, -7.5, -4.5)" filter="url(#c)"><path d="M316.736,143.654c-.126-1.7-.281-4-.439-5.56a2.833,2.833,0,0,0-1.837-2.428,13.885,13.885,0,0,0-10.654-.079c1.572.355,3.551.853,4.58,2.214a4.436,4.436,0,0,1,.864,2.244c.17,1.679.311,3.809.444,5.6a4.4,4.4,0,0,1-1.215,3.407c-.212.219-1.147,1.117-1.814,1.756v5.653a4.45,4.45,0,0,1-.571,2.189,2.709,2.709,0,0,0,2.947-.514,2.729,2.729,0,0,0,1.864.742,2.856,2.856,0,0,0,2.8-2.9V148.2c.516-.454,1.741-1.774,2.224-2.275A2.909,2.909,0,0,0,316.736,143.654Z" transform="translate(-277.42 -121.41)" fill="#fefcfc" fill-rule="evenodd"/></g><g transform="matrix(1, 0, 0, 1, -7.5, -4.5)" filter="url(#e)"><ellipse cx="3.724" cy="3.864" rx="3.724" ry="3.864" transform="translate(11.47 4.5)" fill="#fefcfc"/></g><g transform="matrix(1, 0, 0, 1, -7.5, -4.5)" filter="url(#g)"><path d="M9.629,151c-.7-.7-1.08-1.16-1.817-1.925a4.434,4.434,0,0,1-1.2-3.476c.111-1.235.28-4.039.415-5.524A4.25,4.25,0,0,1,9.78,136.4a20.3,20.3,0,0,1,2.954-.872,13.836,13.836,0,0,0-10.469.135,2.842,2.842,0,0,0-1.839,2.456c-.131,1.447-.3,4.2-.415,5.519a2.922,2.922,0,0,0,.8,2.319l2.227,2.311v7.709a2.949,2.949,0,0,0,.821,2.05,2.715,2.715,0,0,0,3.839.11,2.714,2.714,0,0,0,2.577.646,4.5,4.5,0,0,1-.65-2.321Z" transform="translate(7.5 -121.41)" fill="#fefcfc" fill-rule="evenodd"/></g><g transform="matrix(1, 0, 0, 1, -7.5, -4.5)" filter="url(#i)"><ellipse cx="3.724" cy="3.864" rx="3.724" ry="3.864" transform="translate(19.45 6.6)" fill="#fefcfc"/></g><g transform="matrix(1, 0, 0, 1, -7.5, -4.5)" filter="url(#k)"><path d="M150.381,183.2c-.125-1.689-.283-4.029-.437-5.547a2.359,2.359,0,0,0-1.531-2.024,13.5,13.5,0,0,0-10.543,0,2.364,2.364,0,0,0-1.533,2.048c-.129,1.423-.293,4.159-.415,5.517a2.422,2.422,0,0,0,.671,1.934c.709.736,1.629,1.81,2.364,2.45v6.3a2.457,2.457,0,0,0,.684,1.708,2.271,2.271,0,0,0,3.509-.26,2.3,2.3,0,0,0,1.864.97,2.381,2.381,0,0,0,2.33-2.418V187.38c.344-.334,2.005-1.915,2.36-2.284A2.412,2.412,0,0,0,150.381,183.2Z" transform="translate(-119.96 -158.82)" fill="#fefcfc" fill-rule="evenodd"/></g></g></svg>