<svg xmlns="http://www.w3.org/2000/svg" width="24.125" height="24.125" viewBox="0 0 24.125 24.125"><path d="M23.368,7.524,18.851,3.007a2.585,2.585,0,0,0-1.828-.757H2.585A2.585,2.585,0,0,0,0,4.835V23.79a2.585,2.585,0,0,0,2.585,2.585H21.54a2.585,2.585,0,0,0,2.585-2.585V9.352a2.585,2.585,0,0,0-.757-1.828Zm-11.305,15.4a3.446,3.446,0,1,1,3.446-3.446A3.446,3.446,0,0,1,12.063,22.929Zm5.17-16.4v5.413a.646.646,0,0,1-.646.646H4.093a.646.646,0,0,1-.646-.646v-5.6A.646.646,0,0,1,4.093,5.7H16.4a.646.646,0,0,1,.457.189l.187.187a.646.646,0,0,1,.189.457Z" transform="translate(0 -2.25)" fill="#fefefe"/></svg>