<svg xmlns="http://www.w3.org/2000/svg" width="33" height="24" viewBox="0 0 33 24"><path d="M24,17.786c2.49,0,4.485-2.3,4.485-5.143S26.49,7.5,24,7.5s-4.5,2.3-4.5,5.143S21.51,17.786,24,17.786Zm-12,0c2.49,0,4.485-2.3,4.485-5.143S14.49,7.5,12,7.5,7.5,9.8,7.5,12.643,9.51,17.786,12,17.786Zm0,3.429c-3.495,0-10.5,2.006-10.5,6V31.5h21V27.214C22.5,23.22,15.495,21.214,12,21.214Zm12,0c-.435,0-.93.034-1.455.086A7.5,7.5,0,0,1,25.5,27.214V31.5h9V27.214C34.5,23.22,27.495,21.214,24,21.214Z" transform="translate(-1.5 -7.5)"/></svg>