<svg xmlns="http://www.w3.org/2000/svg" width="25" height="25" viewBox="0 0 25 25"><path d="M27.436,17A3.216,3.216,0,0,1,29.5,14a12.746,12.746,0,0,0-1.543-3.716,3.261,3.261,0,0,1-1.309.28,3.209,3.209,0,0,1-2.936-4.517A12.715,12.715,0,0,0,20,4.5a3.215,3.215,0,0,1-6,0,12.753,12.753,0,0,0-3.717,1.543A3.209,3.209,0,0,1,7.345,10.56a3.155,3.155,0,0,1-1.309-.28A13.028,13.028,0,0,0,4.5,14a3.215,3.215,0,0,1,.007,6A12.746,12.746,0,0,0,6.049,23.72a3.211,3.211,0,0,1,4.238,4.237A12.828,12.828,0,0,0,14.005,29.5a3.209,3.209,0,0,1,5.99,0,12.753,12.753,0,0,0,3.717-1.543,3.214,3.214,0,0,1,4.238-4.237A12.821,12.821,0,0,0,29.493,20,3.232,3.232,0,0,1,27.436,17ZM17.059,22.2a5.207,5.207,0,1,1,5.208-5.207A5.206,5.206,0,0,1,17.059,22.2Z" transform="translate(-4.5 -4.5)" fill="#f7f8f9"/></svg>