<svg xmlns="http://www.w3.org/2000/svg" width="25.046" height="23.257" viewBox="0 0 25.046 23.257"><g transform="translate(0)"><g transform="translate(9.39 0)"><path d="M25.481,6.013,14.191,17.3a.44.44,0,0,0-.129.313V19.1a.442.442,0,0,0,.442.442h1.47a.453.453,0,0,0,.319-.129l11.3-11.29a.442.442,0,0,0,0-.626L26.107,6.013A.442.442,0,0,0,25.481,6.013Z" transform="translate(-14.063 -3.889)" fill="#fff"/><path d="M32.718,4.437l-.8-.8L31.9,3.621a.988.988,0,0,0-.643-.246.968.968,0,0,0-.648.252l-.632.637a.226.226,0,0,0,0,.313l.581.581,1.213,1.213a.223.223,0,0,0,.319,0l.632-.632a.953.953,0,0,0,.246-.648A1.011,1.011,0,0,0,32.718,4.437Z" transform="translate(-17.314 -3.375)" fill="#fff"/></g><path d="M14.435,20.885a.9.9,0,0,1-.632.263H11.489a.9.9,0,0,1-.894-.894v-2.32a.9.9,0,0,1,.263-.632l.045-.045,8.25-8.25A.223.223,0,0,0,19,8.627H5.531A3.282,3.282,0,0,0,2.25,11.908v12.52a3.282,3.282,0,0,0,3.281,3.281H19.839a3.282,3.282,0,0,0,3.281-3.281V12.747a.222.222,0,0,0-.38-.156l-8.261,8.25Z" transform="translate(-2.25 -4.452)" fill="#fff"/></g></svg>