<svg xmlns="http://www.w3.org/2000/svg" width="29.2" height="23.36" viewBox="0 0 29.2 23.36"><path d="M28.773,16.65l-4.12-4.116a2.921,2.921,0,0,0-2.067-.853H18.968a1.459,1.459,0,0,0-1.46,1.46v3.614a2.911,2.911,0,0,0,.853,2.062l4.12,4.116a1.462,1.462,0,0,0,2.067,0l4.221-4.221A1.453,1.453,0,0,0,28.773,16.65Zm-8.341-.958a1.1,1.1,0,1,1,1.1-1.1A1.092,1.092,0,0,1,20.432,15.692ZM10.221,11.676A5.838,5.838,0,1,0,4.38,5.84,5.84,5.84,0,0,0,10.221,11.676Zm5.831,5.074V13.415a6.139,6.139,0,0,0-1.743-.283h-.762a7.943,7.943,0,0,1-6.653,0H6.132A6.141,6.141,0,0,0,0,19.269v1.9a2.191,2.191,0,0,0,2.19,2.19H18.251a2.18,2.18,0,0,0,1.729-.862l-2.646-2.646a4.352,4.352,0,0,1-1.282-3.1Z"/></svg>