<svg xmlns="http://www.w3.org/2000/svg" width="45.292" height="26.212" viewBox="0 0 45.292 26.212"><g transform="translate(5.309 0)"><path d="M62.964,143.167a3.062,3.062,0,1,0,2.949,3.06A3.006,3.006,0,0,0,62.964,143.167Z" transform="translate(-60.015 -143.167)" fill="#fefcfc"/></g><g transform="translate(1.063 7.095)"><path d="M369.543,266.4v0Z" transform="translate(-337.917 -262.186)" fill="#fefcfc"/><path d="M369.542,266.437c0,.006,0,.011,0,.014S369.542,266.444,369.542,266.437Z" transform="translate(-337.916 -262.216)" fill="#fefcfc"/><path d="M369.542,266.588Z" transform="translate(-337.916 -262.354)" fill="#fefcfc"/><path d="M51.81,220.46H44.172a3.447,3.447,0,0,0-3.375,3.476,3.447,3.447,0,0,0-3.375-3.476H29.784a3.447,3.447,0,0,0-3.375,3.476,3.447,3.447,0,0,0-3.375-3.476H15.4a3.445,3.445,0,0,0-3.375,3.476v3.424h2.837l.016-3.409a.286.286,0,1,1,.572,0v3.408h7.536v-3.408a.286.286,0,1,1,.572,0l.016,3.409h5.674l.016-3.409a.286.286,0,1,1,.572,0v3.408h7.536v-3.408a.286.286,0,0,1,.566-.061.309.309,0,0,1,.006.06l.016,3.409h5.674c.014-2.856.013-2.753.013-2.683,0-.053,0-.23,0-.726a.286.286,0,1,1,.572,0v3.408h7.536v-3.408a.286.286,0,1,1,.573,0l.016,3.409h2.837v-3.424A3.446,3.446,0,0,0,51.81,220.46Z" transform="translate(-12.021 -220.46)" fill="#fefcfc"/></g><g transform="translate(19.697 0)"><path d="M225.615,143.167a3.062,3.062,0,1,0,2.949,3.06A3.006,3.006,0,0,0,225.615,143.167Z" transform="translate(-222.666 -143.167)" fill="#fefcfc"/></g><g transform="translate(34.085 0)"><path d="M388.268,143.167a3.062,3.062,0,1,0,2.949,3.06A3.006,3.006,0,0,0,388.268,143.167Z" transform="translate(-385.319 -143.167)" fill="#fefcfc"/></g><g transform="translate(0 15.651)"><path d="M44.191,313.66H1.1a1.143,1.143,0,0,0,0,2.284H2.5V323.1a1.1,1.1,0,0,0,1.081,1.121H41.709a1.1,1.1,0,0,0,1.081-1.121v-7.155h1.4a1.143,1.143,0,0,0,0-2.284Z" transform="translate(0 -313.66)" fill="#fefcfc"/></g></svg>