<svg xmlns="http://www.w3.org/2000/svg" xmlns:xlink="http://www.w3.org/1999/xlink" width="54.835" height="48.399" viewBox="0 0 54.835 48.399"><defs><filter id="a" x="0" y="0" width="54.835" height="48.399" filterUnits="userSpaceOnUse"><feOffset dy="3" input="SourceAlpha"/><feGaussianBlur stdDeviation="2.5" result="b"/><feFlood flood-opacity="0.169"/><feComposite operator="in" in2="b"/><feComposite in="SourceGraphic"/></filter></defs><g transform="translate(8 5)"><g transform="matrix(1, 0, 0, 1, -8, -5)" filter="url(#a)"><path d="M30.3,77.865H3.982a.591.591,0,0,0,0,1.181H30.3a.591.591,0,0,0,0-1.181Zm0-2.361H3.982a.591.591,0,0,0,0,1.181H30.3a.591.591,0,0,0,0-1.181Zm3.413-7.694a.58.58,0,0,0-.569.59V79.636a1.742,1.742,0,0,1-1.707,1.771H2.844a1.742,1.742,0,0,1-1.707-1.771V60.775A1.742,1.742,0,0,1,2.844,59H20.619a.591.591,0,0,0,0-1.181H2.844A2.9,2.9,0,0,0,0,60.775V79.636a2.9,2.9,0,0,0,2.844,2.952h28.6a2.9,2.9,0,0,0,2.844-2.952V68.4A.58.58,0,0,0,33.715,67.81ZM30.581,50.188a8.424,8.424,0,0,0-8.255,8.566,8.831,8.831,0,0,0,.393,2.611H18.773a.591.591,0,0,0,0,1.181H23.18a8.652,8.652,0,0,0,.683,1.181h-5.09a.591.591,0,0,0,0,1.181h6.071a8.074,8.074,0,0,0,5.737,2.413,8.572,8.572,0,0,0,0-17.132Zm0,15.951A7.39,7.39,0,1,1,37.7,58.754,7.263,7.263,0,0,1,30.581,66.139Zm-25.1,8.072a3.09,3.09,0,0,0,.773.112h6.8A2.936,2.936,0,0,0,15.9,71.371V64.317a2.9,2.9,0,0,0-2.844-2.952h-6.8a2.9,2.9,0,0,0-2.844,2.952v7.054A2.942,2.942,0,0,0,5.485,74.211Zm.841-1.069A3.529,3.529,0,0,1,9.657,70.61a3.529,3.529,0,0,1,3.331,2.532Zm1.152-5.974a2.18,2.18,0,1,1,2.179,2.261A2.224,2.224,0,0,1,7.478,67.168ZM4.551,64.317a1.742,1.742,0,0,1,1.707-1.771h6.8a1.742,1.742,0,0,1,1.707,1.771v7.054a1.792,1.792,0,0,1-.689,1.421,4.791,4.791,0,0,0-2.412-2.884,3.483,3.483,0,0,0,1.312-2.74,3.385,3.385,0,0,0-3.317-3.442A3.385,3.385,0,0,0,6.34,67.168a3.483,3.483,0,0,0,1.312,2.74A4.791,4.791,0,0,0,5.24,72.792a1.792,1.792,0,0,1-.689-1.421ZM33.42,56.682l-3.946,4.1a.138.138,0,0,1-.2,0l-1.531-1.589a.554.554,0,0,0-.8,0,.606.606,0,0,0,0,.835l1.531,1.589a1.248,1.248,0,0,0,1.809,0l3.946-4.1a.606.606,0,0,0,0-.835A.554.554,0,0,0,33.42,56.682ZM30.3,70.781H18.773a.591.591,0,0,0,0,1.181H30.3a.591.591,0,0,0,0-1.181Zm0,2.361H18.773a.591.591,0,0,0,0,1.181H30.3a.591.591,0,0,0,0-1.181Z" transform="translate(8 -45.19)" fill="#fdfbfa" stroke="#fafafa" stroke-width="1"/></g></g></svg>