<svg xmlns="http://www.w3.org/2000/svg" width="19" height="23.638" viewBox="0 0 19 23.638"><g transform="translate(-19.199 0.5)"><path d="M31.849,0H19.7V22.638h18V5.85Zm2.835,5.333H32.367V3.015ZM21.465,20.872V1.766H30.6v4.45a.883.883,0,0,0,.883.883h4.449V20.872Z" transform="translate(0)" fill="#fff" stroke="#fff" stroke-width="1"/><rect width="10.126" height="1.177" transform="translate(23.636 17.543)" fill="#fff" stroke="#fff" stroke-width="1"/><rect width="6.011" height="1.177" transform="translate(23.636 6.487)" fill="#fff" stroke="#fff" stroke-width="1"/><path d="M59.8,78.112h.652l-2.522,2.522-1.972-1.972L51.6,83.022l.832.833,3.527-3.527L57.928,82.3l3.354-3.354V79.6h1.177V76.935H59.8Z" transform="translate(-28.143 -67.877)" fill="#fff" stroke="#fff" stroke-width="1"/><rect width="6.011" height="1.177" transform="translate(23.636 3.918)" fill="#fff" stroke="#fff" stroke-width="1"/></g></svg>