<svg xmlns="http://www.w3.org/2000/svg" xmlns:xlink="http://www.w3.org/1999/xlink" width="49.728" height="51" viewBox="0 0 49.728 51"><defs><filter id="a" x="0" y="0" width="49.728" height="51" filterUnits="userSpaceOnUse"><feOffset dy="3" input="SourceAlpha"/><feGaussianBlur stdDeviation="2.5" result="b"/><feFlood flood-opacity="0.169"/><feComposite operator="in" in2="b"/><feComposite in="SourceGraphic"/></filter><filter id="c" x="23.847" y="20.645" width="21.929" height="22.152" filterUnits="userSpaceOnUse"><feOffset dy="3" input="SourceAlpha"/><feGaussianBlur stdDeviation="2.5" result="d"/><feFlood flood-opacity="0.169"/><feComposite operator="in" in2="d"/><feComposite in="SourceGraphic"/></filter><filter id="e" x="5.995" y="12.441" width="19.953" height="18.051" filterUnits="userSpaceOnUse"><feOffset dy="3" input="SourceAlpha"/><feGaussianBlur stdDeviation="2.5" result="f"/><feFlood flood-opacity="0.169"/><feComposite operator="in" in2="f"/><feComposite in="SourceGraphic"/></filter><filter id="g" x="5.995" y="16.543" width="19.953" height="18.051" filterUnits="userSpaceOnUse"><feOffset dy="3" input="SourceAlpha"/><feGaussianBlur stdDeviation="2.5" result="h"/><feFlood flood-opacity="0.169"/><feComposite operator="in" in2="h"/><feComposite in="SourceGraphic"/></filter><filter id="i" x="5.995" y="20.645" width="19.953" height="18.051" filterUnits="userSpaceOnUse"><feOffset dy="3" input="SourceAlpha"/><feGaussianBlur stdDeviation="2.5" result="j"/><feFlood flood-opacity="0.169"/><feComposite operator="in" in2="j"/><feComposite in="SourceGraphic"/></filter><filter id="k" x="13.965" y="12.441" width="19.952" height="18.051" filterUnits="userSpaceOnUse"><feOffset dy="3" input="SourceAlpha"/><feGaussianBlur stdDeviation="2.5" result="l"/><feFlood flood-opacity="0.169"/><feComposite operator="in" in2="l"/><feComposite in="SourceGraphic"/></filter><filter id="m" x="13.965" y="16.543" width="19.952" height="18.051" filterUnits="userSpaceOnUse"><feOffset dy="3" input="SourceAlpha"/><feGaussianBlur stdDeviation="2.5" result="n"/><feFlood flood-opacity="0.169"/><feComposite operator="in" in2="n"/><feComposite in="SourceGraphic"/></filter><filter id="o" x="5.995" y="24.746" width="19.953" height="18.051" filterUnits="userSpaceOnUse"><feOffset dy="3" input="SourceAlpha"/><feGaussianBlur stdDeviation="2.5" result="p"/><feFlood flood-opacity="0.169"/><feComposite operator="in" in2="p"/><feComposite in="SourceGraphic"/></filter><filter id="q" x="21.87" y="12.441" width="19.952" height="18.051" filterUnits="userSpaceOnUse"><feOffset dy="3" input="SourceAlpha"/><feGaussianBlur stdDeviation="2.5" result="r"/><feFlood flood-opacity="0.169"/><feComposite operator="in" in2="r"/><feComposite in="SourceGraphic"/></filter></defs><g transform="translate(8 5)"><g transform="matrix(1, 0, 0, 1, -8, -5)" filter="url(#a)"><path d="M31.752,19.978V3.145a1.007,1.007,0,0,0-.988-1.025H25.757V1.025a.989.989,0,1,0-1.976,0V2.119H19.828V1.025a.989.989,0,1,0-1.976,0V2.119H13.9V1.025a.989.989,0,1,0-1.976,0V2.119H7.971V1.025a.989.989,0,1,0-1.976,0V2.119H.988A1.007,1.007,0,0,0,0,3.145V29.873A1.007,1.007,0,0,0,.988,30.9H17.444A8.812,8.812,0,0,0,24.835,35a9.076,9.076,0,0,0,8.893-9.229A9.4,9.4,0,0,0,31.752,19.978ZM5.995,4.17V5.2a.989.989,0,1,0,1.976,0V4.17h3.952V5.2a.989.989,0,1,0,1.976,0V4.17h3.952V5.2a.989.989,0,1,0,1.976,0V4.17h3.952V5.2a.989.989,0,1,0,1.976,0V4.17h4.018v4.1H1.976V4.17ZM1.976,28.848V10.322h27.8V18.1a8.617,8.617,0,0,0-4.941-1.559,8.819,8.819,0,0,0-7.461,4.212.953.953,0,0,0-.444-.11H14.954a1.026,1.026,0,0,0,0,2.051h1.5A9.444,9.444,0,0,0,16,24.746H14.954a1.026,1.026,0,0,0,0,2.051H16a9.429,9.429,0,0,0,.453,2.051Zm22.859,4.1a7.183,7.183,0,0,1,0-14.355,7.183,7.183,0,0,1,0,14.355Zm0,0" transform="translate(8 5)" fill="#fefcfc" stroke="#fdfbfa" stroke-width="1"/></g><g transform="matrix(1, 0, 0, 1, -8, -5)" filter="url(#c)"><path d="M366.941,306.1h-2.964v-3.076a.989.989,0,1,0-1.976,0v4.1a1.007,1.007,0,0,0,.988,1.025h3.952a1.026,1.026,0,0,0,0-2.051Zm0,0" transform="translate(-330.15 -276.36)" fill="#fefcfc" stroke="#fdfbfa" stroke-width="1"/></g><g transform="matrix(1, 0, 0, 1, -8, -5)" filter="url(#e)"><path d="M93.964,182H91.988a1.026,1.026,0,0,0,0,2.051h1.976a1.026,1.026,0,0,0,0-2.051Zm0,0" transform="translate(-77.01 -164.56)" fill="#fefcfc" stroke="#fdfbfa" stroke-width="1"/></g><g transform="matrix(1, 0, 0, 1, -8, -5)" filter="url(#g)"><path d="M93.964,242H91.988a1.026,1.026,0,0,0,0,2.051h1.976a1.026,1.026,0,0,0,0-2.051Zm0,0" transform="translate(-77.01 -220.46)" fill="#fefcfc" stroke="#fdfbfa" stroke-width="1"/></g><g transform="matrix(1, 0, 0, 1, -8, -5)" filter="url(#i)"><path d="M93.964,302H91.988a1.026,1.026,0,0,0,0,2.051h1.976a1.026,1.026,0,0,0,0-2.051Zm0,0" transform="translate(-77.01 -276.36)" fill="#fefcfc" stroke="#fdfbfa" stroke-width="1"/></g><g transform="matrix(1, 0, 0, 1, -8, -5)" filter="url(#k)"><path d="M212.988,184.051h1.976a1.026,1.026,0,0,0,0-2.051h-1.976a1.026,1.026,0,0,0,0,2.051Zm0,0" transform="translate(-190.03 -164.56)" fill="#fefcfc" stroke="#fdfbfa" stroke-width="1"/></g><g transform="matrix(1, 0, 0, 1, -8, -5)" filter="url(#m)"><path d="M212.988,244.051h1.976a1.026,1.026,0,0,0,0-2.051h-1.976a1.026,1.026,0,0,0,0,2.051Zm0,0" transform="translate(-190.03 -220.46)" fill="#fefcfc" stroke="#fdfbfa" stroke-width="1"/></g><g transform="matrix(1, 0, 0, 1, -8, -5)" filter="url(#o)"><path d="M93.964,362H91.988a1.026,1.026,0,0,0,0,2.051h1.976a1.026,1.026,0,0,0,0-2.051Zm0,0" transform="translate(-77.01 -332.25)" fill="#fefcfc" stroke="#fdfbfa" stroke-width="1"/></g><g transform="matrix(1, 0, 0, 1, -8, -5)" filter="url(#q)"><path d="M332.988,184.051h1.976a1.026,1.026,0,0,0,0-2.051h-1.976a1.026,1.026,0,0,0,0,2.051Zm0,0" transform="translate(-302.13 -164.56)" fill="#fefcfc" stroke="#fdfbfa" stroke-width="1"/></g></g></svg>